<svg width="51" height="51" viewBox="0 0 51 51" fill="none" xmlns="http://www.w3.org/2000/svg">
<mask id="mask0_634_37637" style="mask-type:luminance" maskUnits="userSpaceOnUse" x="0" y="0" width="51" height="51">
<path d="M0.332031 0.939453H50.332V50.9395H0.332031V0.939453Z" fill="white"/>
</mask>
<g mask="url(#mask0_634_37637)">
<path fill-rule="evenodd" clip-rule="evenodd" d="M44.6939 50.9395H5.96946C2.85552 50.9395 0.332031 48.417 0.332031 45.3043V6.57597C0.332031 3.46401 2.85552 0.939453 5.96946 0.939453H44.6939C47.8064 0.939453 50.332 3.46331 50.332 6.57667V45.3036C50.332 48.4163 47.8064 50.9395 44.6939 50.9395Z" fill="#E8B52E"/>
</g>
<path fill-rule="evenodd" clip-rule="evenodd" d="M11.1492 43.1666V18.3159H8.39844L11.9606 8.71094H18.8619V43.1666H11.1492ZM41.0909 8.71164H22.247C22.1463 8.71118 22.0465 8.73071 21.9533 8.76913C21.8601 8.80754 21.7753 8.86409 21.7037 8.93553C21.6322 9.00697 21.5753 9.09192 21.5364 9.18551C21.4974 9.27911 21.4771 9.37952 21.4767 9.48102V19.8954H29.0095V15.2047H34.3326V19.353L21.2062 38.0711V43.1245H41.7734V36.4017H30.769L40.3729 22.9182C40.674 22.4959 40.9138 22.1284 41.0965 21.8115C41.2763 21.4967 41.4269 21.1897 41.5475 20.8861C41.666 20.5875 41.7497 20.2566 41.795 19.8954C41.8396 19.5336 41.8619 19.0986 41.8619 18.5878V9.48102C41.8614 9.37952 41.8412 9.27911 41.8022 9.18551C41.7632 9.09192 41.7064 9.00697 41.6348 8.93553C41.5633 8.86409 41.4785 8.80754 41.3853 8.76913C41.2921 8.73071 41.1916 8.71118 41.0909 8.71164Z" fill="#FEFEFE"/>
</svg>
