<svg width="51" height="51" viewBox="0 0 51 51" fill="none" xmlns="http://www.w3.org/2000/svg">
<mask id="mask0_634_37638" style="mask-type:luminance" maskUnits="userSpaceOnUse" x="0" y="0" width="51" height="51">
<path d="M0.332031 0.939453H50.332V50.9395H0.332031V0.939453Z" fill="white"/>
</mask>
<g mask="url(#mask0_634_37638)">
<path fill-rule="evenodd" clip-rule="evenodd" d="M44.6953 50.9395H5.96737C2.85692 50.9395 0.332031 48.4156 0.332031 45.3029V6.57597C0.332031 3.46331 2.85692 0.939453 5.96667 0.939453H44.696C47.8085 0.939453 50.332 3.4626 50.332 6.57597V45.3022C50.332 48.4149 47.8085 50.9388 44.696 50.9388" fill="#DC732E"/>
</g>
<path fill-rule="evenodd" clip-rule="evenodd" d="M11.1278 43.1668V18.3168H8.375L11.9372 8.70898H18.8405V43.1661L11.1278 43.1668ZM41.1142 20.4809H29.0286V15.429H41.6579V8.70898H21.4546V27.0645H34.399V36.6702H28.9408V32.1593H21.4539V42.396C21.455 42.6007 21.5367 42.7967 21.681 42.9408C21.8253 43.0849 22.0204 43.1654 22.2235 43.1647H41.1142C41.3173 43.1654 41.5124 43.0849 41.6567 42.9408C41.801 42.7967 41.8827 42.6007 41.8838 42.396V21.2503C41.8834 21.1488 41.8632 21.0483 41.8243 20.9547C41.7855 20.8611 41.7287 20.7761 41.6572 20.7046C41.5857 20.6331 41.501 20.5764 41.4078 20.5379C41.3147 20.4994 41.2149 20.4805 41.1142 20.4809Z" fill="#FEFEFE"/>
</svg>
