<svg width="51" height="51" viewBox="0 0 51 51" fill="none" xmlns="http://www.w3.org/2000/svg">
<path d="M44.696 50.9395H5.9673C2.85368 50.9395 0.332031 48.4178 0.332031 45.3043V6.57619C0.332031 3.46352 2.85368 0.939453 5.9673 0.939453H44.696C47.8088 0.939453 50.332 3.46352 50.332 6.57619V45.3043C50.332 48.4178 47.8088 50.9395 44.696 50.9395Z" fill="#D92C35"/>
<path d="M28.9407 15.8209C28.9415 15.6163 29.023 15.4204 29.1675 15.2761C29.3119 15.1318 29.5075 15.051 29.7112 15.0515H33.6713C33.875 15.051 34.0706 15.1318 34.215 15.2761C34.3595 15.4204 34.441 15.6163 34.4417 15.8209V21.8506C34.441 22.0552 34.3595 22.2512 34.215 22.3954C34.0706 22.5397 33.875 22.6205 33.6713 22.6201H29.7112C29.5075 22.6205 29.3119 22.5397 29.1675 22.3954C29.023 22.2512 28.9415 22.0552 28.9407 21.8506V21.5213V15.8209ZM41.2478 8.71368H22.0868C21.8831 8.71325 21.6876 8.79404 21.5431 8.93831C21.3987 9.08258 21.3171 9.27853 21.3164 9.48314V26.8347C21.3165 27.2437 21.4783 27.6359 21.7662 27.925C22.0541 28.2142 22.4446 28.3767 22.8517 28.3768H34.5318V36.6753H29.0738V32.1641H21.5865V42.4005C21.5865 42.8254 21.9311 43.1699 22.3561 43.1699H41.2482C41.6729 43.1699 42.0174 42.8254 42.0174 42.4005V9.48314C42.0167 9.27867 41.9353 9.08284 41.791 8.93859C41.6467 8.79435 41.4514 8.71346 41.2478 8.71368Z" fill="white"/>
<path d="M10.9238 43.1677V18.3165H8.17188L11.7368 8.71289H18.6352V43.1689L10.9238 43.1677Z" fill="white"/>
</svg>
