<svg width="51" height="51" viewBox="0 0 51 51" fill="none" xmlns="http://www.w3.org/2000/svg">
<path fill-rule="evenodd" clip-rule="evenodd" d="M44.6965 50.9408H5.96892C4.47398 50.9407 3.04032 50.3467 1.98324 49.2896C0.92616 48.2326 0.332216 46.7989 0.332031 45.304L0.332031 6.57634C0.332401 5.08146 0.926404 3.64791 1.98345 2.59087C3.04049 1.53383 4.47404 0.939823 5.96892 0.939453L44.6965 0.939453C45.4367 0.939453 46.1697 1.08527 46.8535 1.36856C47.5373 1.65186 48.1586 2.06709 48.6819 2.59054C49.2052 3.11399 49.6203 3.73541 49.9035 4.4193C50.1866 5.10319 50.3322 5.83616 50.332 6.57634V45.3047C50.3322 46.0448 50.1866 46.7777 49.9034 47.4616C49.6203 48.1454 49.2052 48.7668 48.6819 49.2902C48.1586 49.8136 47.5372 50.2288 46.8534 50.512C46.1696 50.7952 45.4367 50.9409 44.6965 50.9408Z" fill="#269C55"/>
<path fill-rule="evenodd" clip-rule="evenodd" d="M11.8843 21.3902L10.4866 30.0456H13.2827L11.8843 21.3902ZM14.6825 38.6355L14.0816 34.8411L9.6898 34.8432L9.09028 38.6334L3.42969 38.6355V38.5679L8.78912 13.2026L14.9802 13.204L20.3396 38.5692L20.341 38.6355H14.6825ZM21.3365 38.6355V13.2019H26.9971V33.5423H33.6546V38.6355H21.3365ZM34.8536 38.6341V13.2012L40.5121 13.2019L40.51 33.5416H47.1703V38.6355L34.8536 38.6341Z" fill="#FEFEFE"/>
</svg>
