<svg width="52" height="51" viewBox="0 0 52 51" fill="none" xmlns="http://www.w3.org/2000/svg">
<mask id="mask0_634_37654" style="mask-type:luminance" maskUnits="userSpaceOnUse" x="0" y="0" width="52" height="51">
<path d="M0.726562 0.941406H51.1193V50.9407H0.726562V0.941406Z" fill="white"/>
</mask>
<g mask="url(#mask0_634_37654)">
<path fill-rule="evenodd" clip-rule="evenodd" d="M45.44 50.9407H6.40594C3.26869 50.9407 0.726562 48.4183 0.726562 45.3056V6.57722C0.726562 3.46596 3.26869 0.941406 6.40594 0.941406H45.44C48.5772 0.941406 51.1193 3.46596 51.1193 6.57792V45.3049C51.1193 48.4183 48.5772 50.9407 45.44 50.9407Z" fill="black"/>
</g>
<path fill-rule="evenodd" clip-rule="evenodd" d="M42.1679 8.35777C40.6594 6.60189 38.9197 5.6154 38.2845 6.15572C37.858 6.51407 38.0421 7.46473 38.6555 8.5791L36.3593 10.5212C36.9182 10.9525 37.4301 11.4414 37.8868 11.9798C38.3885 12.5616 38.7932 13.1532 39.0974 13.7062L41.3936 11.7641C42.4054 12.5405 43.3238 12.8715 43.7489 12.5089C44.384 11.9707 43.6786 10.1115 42.1679 8.35707M36.8827 12.8307C34.7327 10.3301 32.2573 8.9269 31.3495 9.69348C30.8359 10.1263 30.9518 11.1662 31.521 12.4316L19.0942 22.9479C19.0256 23.0049 18.9757 23.0812 18.951 23.1669C18.9264 23.2526 18.928 23.3438 18.9558 23.4285C19.0963 23.8571 19.2755 24.2668 19.475 24.6652L16.2851 27.3619C16.2175 27.4196 16.1686 27.4961 16.1445 27.5816C16.1205 27.6672 16.1225 27.758 16.1502 27.8425C16.3083 28.3294 16.5598 28.7728 16.8577 29.1852L12.2204 33.1073C12.1749 33.1452 12.1375 33.1917 12.1103 33.2442C12.0831 33.2966 12.0665 33.354 12.0617 33.4129C12.0569 33.4719 12.0638 33.5312 12.0821 33.5874C12.1004 33.6436 12.1297 33.6956 12.1684 33.7404C12.2499 33.8352 12.363 33.8879 12.4768 33.8977C12.597 33.9062 12.7158 33.8679 12.8085 33.7909L17.443 29.8682C17.8077 30.223 18.2096 30.5406 18.6677 30.7731L18.8363 30.8202C18.9564 30.8296 19.0754 30.7918 19.168 30.7148L22.3565 28.0153C22.7205 28.2732 23.0992 28.5128 23.5053 28.7179L23.6754 28.7685C23.7946 28.7769 23.9124 28.7384 24.0035 28.661L36.4309 18.1447C37.6022 18.9001 38.6189 19.1776 39.1305 18.7448C40.0383 17.9789 39.0321 15.3286 36.8827 12.8307ZM23.7049 26.8075C23.1287 26.3726 22.5947 25.8751 22.1204 25.3221C21.647 24.7723 21.2349 24.1724 20.8915 23.5332L24.5712 20.4185L27.3839 23.6934L23.7049 26.8075ZM28.8727 20.2632C28.7797 20.3398 28.6606 20.3776 28.5404 20.3686C28.4811 20.3642 28.4232 20.348 28.3701 20.3212C28.3171 20.2943 28.2699 20.2571 28.2312 20.2119L26.8934 18.6555C26.8549 18.6108 26.8257 18.5589 26.8074 18.5029C26.789 18.4468 26.782 18.3876 26.7867 18.3288C26.7914 18.27 26.8078 18.2127 26.8348 18.1602C26.8618 18.1078 26.8989 18.0612 26.944 18.0232C27.0353 17.9461 27.1533 17.908 27.2724 17.9172C27.3915 17.9264 27.5022 17.9822 27.5806 18.0724L28.9205 19.6322C29.0821 19.8191 29.0603 20.103 28.8727 20.2632ZM30.8605 18.579C30.8151 18.6174 30.7625 18.6464 30.7058 18.6644C30.6492 18.6824 30.5895 18.6889 30.5302 18.6837C30.4714 18.6793 30.414 18.6633 30.3614 18.6365C30.3088 18.6097 30.262 18.5727 30.2239 18.5277L28.8847 16.9706C28.8457 16.9261 28.8161 16.8743 28.7975 16.8182C28.7789 16.762 28.7718 16.7027 28.7765 16.6438C28.7812 16.5848 28.7977 16.5274 28.825 16.475C28.8522 16.4225 28.8897 16.376 28.9353 16.3383C29.0269 16.2613 29.145 16.2233 29.2643 16.2325C29.3836 16.2417 29.4946 16.2973 29.5733 16.3875L30.9104 17.9466C30.9492 17.9911 30.9787 18.043 30.9972 18.0991C31.0158 18.1551 31.0229 18.2144 31.0183 18.2733C31.0136 18.3321 30.9973 18.3895 30.9702 18.442C30.9431 18.4945 30.9058 18.5411 30.8605 18.579ZM32.8503 16.8933C32.8053 16.9318 32.7532 16.9609 32.6968 16.9791C32.6405 16.9973 32.5812 17.0042 32.5222 16.9994C32.4628 16.9951 32.4049 16.979 32.3518 16.9523C32.2986 16.9255 32.2512 16.8885 32.2123 16.8435L30.8745 15.2864C30.8359 15.2416 30.8065 15.1896 30.7882 15.1334C30.7698 15.0772 30.7627 15.0179 30.7674 14.959C30.7721 14.9 30.7885 14.8426 30.8156 14.79C30.8426 14.7374 30.8799 14.6907 30.9251 14.6527C31.0163 14.5753 31.1344 14.5371 31.2537 14.5464C31.3729 14.5558 31.4837 14.6119 31.5617 14.7025L32.9009 16.2624C32.9395 16.3069 32.9688 16.3587 32.9871 16.4147C33.0055 16.4707 33.0125 16.5297 33.0078 16.5885C33.0031 16.6472 32.9867 16.7044 32.9597 16.7567C32.9327 16.8091 32.8955 16.8555 32.8503 16.8933ZM12.24 38.996C12.2485 37.2177 10.0246 34.9559 10.0246 34.9559C10.0246 34.9559 7.7769 37.1959 7.76566 38.9715C7.75864 40.1961 8.75567 41.1953 9.98949 41.2016C10.2822 41.2049 10.5726 41.1503 10.8442 41.0412C11.1158 40.9321 11.3632 40.7705 11.5722 40.5656C11.7812 40.3607 11.9478 40.1166 12.0624 39.8473C12.177 39.578 12.2374 39.2887 12.24 38.996ZM21.5717 43.3875C21.3925 43.5526 21.1361 43.6362 20.8107 43.6362C20.4854 43.6362 20.2297 43.547 20.047 43.3692C19.9685 43.2928 19.9066 43.2012 19.8649 43.0999C19.8232 42.9986 19.8027 42.8899 19.8046 42.7804C19.8046 42.55 19.8896 42.356 20.0638 42.1916C20.2381 42.0265 20.4826 41.9457 20.8107 41.9457C21.1424 41.9457 21.4045 42.0328 21.5914 42.2078C21.76 42.3624 21.8415 42.55 21.8415 42.7804C21.8415 43.0186 21.7502 43.2231 21.5717 43.3875ZM22.2891 43.9622C22.6137 43.6426 22.7767 43.2456 22.7767 42.7804C22.7767 42.3181 22.6102 41.9232 22.2799 41.6049C21.9195 41.2571 21.4227 41.0794 20.803 41.0794C20.1903 41.0794 19.6957 41.2557 19.3331 41.6049C19.0078 41.919 18.8448 42.3146 18.8448 42.7804C18.8448 43.2399 19.0106 43.6369 19.3408 43.9622C19.7034 44.3164 20.1959 44.4963 20.803 44.4963C21.4283 44.4963 21.9265 44.3164 22.2891 43.9622ZM24.7363 40.6592H23.7822V44.7928H24.7356V44.3578H25.6673V43.5224H24.7363V42.6413H25.668V41.8052H24.7363V40.6592ZM19.5193 45.709H23.7822V47.2829H24.7356V44.896H19.5193V45.709Z" fill="#FEFEFE"/>
<mask id="mask1_634_37654" style="mask-type:luminance" maskUnits="userSpaceOnUse" x="0" y="0" width="52" height="51">
<path d="M0.726562 50.9407H51.1193V0.941406H0.726562V50.9407Z" fill="white"/>
</mask>
<g mask="url(#mask1_634_37654)">
<path fill-rule="evenodd" clip-rule="evenodd" d="M27.7736 42.4071H31.1272V41.7241H27.7736V42.4071ZM26.837 43.1223H32.0688V41.0039H26.837V43.1223ZM25.9453 44.1215H29.0207V44.4004H26.837V45.115H31.1265V45.3862H26.837V47.0915H32.2304V46.3706H27.7736V46.0994H32.0688V44.4004H29.9482V44.1215H33.0004V43.3922H25.9453V44.1215Z" fill="#FEFEFE"/>
</g>
</svg>
