<svg width="52" height="51" viewBox="0 0 52 51" fill="none" xmlns="http://www.w3.org/2000/svg">
<mask id="mask0_634_37651" style="mask-type:luminance" maskUnits="userSpaceOnUse" x="0" y="0" width="52" height="51">
<path d="M0.730469 0.941406H51.1239V50.9407H0.731171L0.730469 0.941406Z" fill="white"/>
</mask>
<g mask="url(#mask0_634_37651)">
<path fill-rule="evenodd" clip-rule="evenodd" d="M45.4439 50.9407H6.40774C3.27329 50.9407 0.730469 48.4183 0.730469 45.3056V6.58003C0.729766 3.46596 3.27329 0.941406 6.40703 0.941406H45.4432C48.5811 0.941406 51.1225 3.46596 51.1225 6.58073V45.3049C51.1225 48.4183 48.5818 50.9407 45.4439 50.9407Z" fill="black"/>
</g>
<path fill-rule="evenodd" clip-rule="evenodd" d="M20.4838 35.4196C19.3343 35.4336 18.5691 34.3987 19.0786 33.5119L23.4897 28.2078L23.6077 22.1363L17.1414 18.3372C16.7353 18.0983 16.4922 17.702 16.4922 17.2776C16.4922 16.2483 17.837 15.6377 18.8284 16.2202L23.6696 19.0658L23.6864 18.0758C22.4287 17.4196 21.7563 16.1323 22.1111 14.8388C22.4568 13.5811 23.7707 12.7218 25.2498 12.5883V10.5457H13.4968C11.3145 11.0924 9.59091 12.7716 9 14.9196V33.8836C9.58881 36.0337 11.3124 37.7109 13.4926 38.2575H25.2498V30.6129L21.861 34.6516C21.6122 35.1153 21.0775 35.4133 20.4838 35.4196ZM40.0486 4.75391H26.1562V33.2414H40.0486C41.8466 33.2414 43.3088 31.9851 43.3088 30.4393V7.5553C43.3088 6.00881 41.8466 4.75391 40.0486 4.75391ZM42.0054 30.4393C42.0054 31.3675 41.1286 32.1214 40.0486 32.1214H27.4588V26.1814L29.9968 29.2434C30.2441 29.7072 30.7816 30.0079 31.3739 30.0156C32.5248 30.0297 33.2851 28.9947 32.7792 28.1094L28.3652 22.801L28.2479 16.7303L34.7142 12.9297C35.1218 12.6929 35.367 12.2953 35.367 11.8737C35.367 10.8429 34.0179 10.233 33.0286 10.8148L28.1882 13.6591L28.1692 12.6712C29.4311 12.0156 30.1 10.7284 29.7466 9.43554C29.4705 8.42727 28.5662 7.66842 27.4588 7.33959V5.8732H40.0486C41.1286 5.8732 42.0054 6.62642 42.0054 7.5553V30.4393ZM16.5182 44.4856H15.5668V45.6759H12.4998V46.4959H19.5542V45.6759H16.5182V44.4856Z" fill="#FEFEFE"/>
<mask id="mask1_634_37651" style="mask-type:luminance" maskUnits="userSpaceOnUse" x="0" y="0" width="52" height="51">
<path d="M0.730469 50.9407H51.1239V0.941406H0.730469V50.9407Z" fill="white"/>
</mask>
<g mask="url(#mask1_634_37651)">
<path fill-rule="evenodd" clip-rule="evenodd" d="M14.2914 43.4822H17.6668V42.1205H14.2914V43.4822ZM13.3555 44.2818H18.595V41.3075H13.3555V44.2818ZM20.8905 43.5672H22.4749V42.724H20.8905V43.5672ZM23.4193 40.9028H22.4749V41.8949H20.8905V40.8789H19.9553V44.3661H23.4193V40.9021V40.9028Z" fill="#FEFEFE"/>
</g>
<mask id="mask2_634_37651" style="mask-type:luminance" maskUnits="userSpaceOnUse" x="0" y="0" width="52" height="51">
<path d="M0.730469 50.9407H51.1239V0.941406H0.730469V50.9407Z" fill="white"/>
</mask>
<g mask="url(#mask2_634_37651)">
<path fill-rule="evenodd" clip-rule="evenodd" d="M24.451 46.1972C24.1994 46.2815 23.7244 46.3237 23.0387 46.3237C22.3487 46.3237 21.8716 46.2815 21.6173 46.1972C21.3903 46.1227 21.2772 46.0145 21.2772 45.8649C21.2772 45.7152 21.3896 45.6049 21.6201 45.5297C21.8716 45.4461 22.3508 45.4046 23.0387 45.4046C23.7167 45.4046 24.1896 45.4468 24.4468 45.5297C24.6786 45.6063 24.791 45.7159 24.791 45.8649C24.791 46.0124 24.6786 46.1227 24.451 46.1972ZM25.5675 40.5593H24.614V44.747C24.2205 44.6521 23.7006 44.6065 23.0387 44.6065C22.0747 44.6065 21.41 44.7013 21.0039 44.8917C20.5851 45.0906 20.375 45.4187 20.375 45.8649C20.375 46.3054 20.5858 46.6307 21.0074 46.8317C21.4149 47.0277 22.0803 47.1212 23.038 47.1212C23.9809 47.1212 24.6625 47.0256 25.0651 46.8359C25.4838 46.6357 25.6953 46.3089 25.6953 45.8649C25.6953 45.4236 25.4803 45.0976 25.058 44.898C24.9437 44.8448 24.825 44.8015 24.7032 44.7688H25.5675V43.2448H26.7401V42.4311H25.5675V40.5593Z" fill="#FEFEFE"/>
</g>
<mask id="mask3_634_37651" style="mask-type:luminance" maskUnits="userSpaceOnUse" x="0" y="0" width="52" height="51">
<path d="M0.730469 50.9407H51.1239V0.941406H0.730469V50.9407Z" fill="white"/>
</mask>
<g mask="url(#mask3_634_37651)">
<path fill-rule="evenodd" clip-rule="evenodd" d="M31.5696 43.7671C30.8768 43.8268 30.0267 43.8795 29.0451 43.9238C28.0684 43.9659 27.2042 43.9884 26.4784 43.9884H26.3828L26.5058 44.6067C26.5479 44.7529 26.5831 44.8456 26.6196 44.899C26.68 44.9925 26.7524 45.0072 26.7903 45.0072H26.8156L26.8353 44.9932C26.907 44.9461 26.9786 44.8948 27.0524 44.8435C27.6046 44.7957 28.158 44.7639 28.712 44.748V46.9683H29.6395V44.7009C29.8967 44.6967 30.2916 44.6658 30.8115 44.6088C30.9766 44.5955 31.2162 44.5709 31.6111 44.5245L31.8121 44.495L31.7811 43.7383L31.5696 43.7671Z" fill="#FEFEFE"/>
</g>
<mask id="mask4_634_37651" style="mask-type:luminance" maskUnits="userSpaceOnUse" x="0" y="0" width="52" height="51">
<path d="M0.730469 50.9407H51.1239V0.941406H0.730469V50.9407Z" fill="white"/>
</mask>
<g mask="url(#mask4_634_37651)">
<path fill-rule="evenodd" clip-rule="evenodd" d="M31.7328 47.2526H32.6849V40.5762H31.7328V47.2526ZM28.2871 41.9119C28.4487 41.8388 28.7087 41.8023 29.0565 41.8023C29.3951 41.8023 29.6502 41.8416 29.8188 41.9224C29.9713 41.9962 30.0437 42.1192 30.0437 42.3011C30.0437 42.5105 29.9678 42.651 29.8083 42.7297C29.6579 42.8 29.4036 42.8358 29.0565 42.8358C28.7023 42.8358 28.4501 42.7979 28.3061 42.7227C28.1494 42.6391 28.0742 42.4937 28.0742 42.2758C28.0742 42.0988 28.1416 41.9793 28.2871 41.9119ZM27.6547 43.2869C27.9779 43.5167 28.4501 43.6326 29.0565 43.6326C29.6593 43.6326 30.1308 43.5167 30.4547 43.2869C30.7871 43.0522 30.9571 42.7213 30.9571 42.3061C30.9571 41.8985 30.7871 41.5669 30.4477 41.3238C30.1167 41.0877 29.6467 40.9654 29.0565 40.9654C28.4564 40.9654 27.9864 41.0828 27.6582 41.3153C27.3231 41.5549 27.1523 41.8774 27.1523 42.2758C27.1523 42.7129 27.3231 43.0522 27.6547 43.2869ZM33.9798 41.536H36.5072V40.7813H33.9798V41.536ZM34.5799 43.5019C34.7014 43.4373 34.9115 43.4036 35.2073 43.4036C35.5087 43.4036 35.7216 43.4359 35.8453 43.4991C35.9542 43.5546 36.0041 43.6263 36.0041 43.7275C36.0041 43.8427 35.9514 43.9291 35.8453 43.9917C35.7259 44.0605 35.5116 44.0957 35.2073 44.0957C34.9122 44.0957 34.7014 44.0605 34.5799 43.9917C34.4696 43.9277 34.4197 43.8441 34.4197 43.7275C34.4197 43.6312 34.4696 43.5595 34.5799 43.5019ZM36.5044 44.5341C36.8037 44.3388 36.9562 44.0725 36.9562 43.7429C36.9562 43.4296 36.8128 43.1731 36.5304 42.9785C36.2163 42.767 35.7701 42.6602 35.2073 42.6602C34.6368 42.6602 34.1955 42.7642 33.8934 42.9707C33.6102 43.1626 33.4676 43.4239 33.4676 43.7429C33.4676 44.0732 33.6166 44.3388 33.9096 44.5341C34.1955 44.7224 34.6312 44.818 35.2073 44.818C35.7779 44.818 36.2135 44.7224 36.5044 44.5341ZM38.4043 40.5994V43.027H37.0721V43.8631H38.4043V44.8257H39.3571V40.5994H38.4043Z" fill="#FEFEFE"/>
</g>
<mask id="mask5_634_37651" style="mask-type:luminance" maskUnits="userSpaceOnUse" x="0" y="0" width="52" height="51">
<path d="M0.730469 50.9407H51.1239V0.941406H0.730469V50.9407Z" fill="white"/>
</mask>
<g mask="url(#mask5_634_37651)">
<path fill-rule="evenodd" clip-rule="evenodd" d="M33.0547 42.4895H37.397V41.7363H33.0547V42.4895ZM35.1963 46.2268H38.4024V45.702H35.1963V46.2268ZM34.2759 47.2232H35.1942V47.0011H38.4024V47.2232H39.3552V44.9438H34.2752V47.2239L34.2759 47.2232Z" fill="#FEFEFE"/>
</g>
</svg>
