<svg width="51" height="51" viewBox="0 0 51 51" fill="none" xmlns="http://www.w3.org/2000/svg">
<mask id="mask0_634_37653" style="mask-type:luminance" maskUnits="userSpaceOnUse" x="0" y="0" width="51" height="51">
<path d="M0.332031 0.941406H50.7255V50.9414H0.332031V0.941406Z" fill="white"/>
</mask>
<g mask="url(#mask0_634_37653)">
<path fill-rule="evenodd" clip-rule="evenodd" d="M45.0461 50.9414H6.01219C2.877 50.9414 0.332031 48.4189 0.332031 45.3062V6.58011C0.332031 3.466 2.877 0.941406 6.01219 0.941406H45.0461C48.1862 0.941406 50.7262 3.466 50.7262 6.58081V45.3055C50.7262 48.4189 48.1862 50.9414 45.0461 50.9414Z" fill="black"/>
</g>
<mask id="mask1_634_37653" style="mask-type:luminance" maskUnits="userSpaceOnUse" x="0" y="0" width="51" height="51">
<path d="M0.332031 0.941406H50.7255V50.9414H0.332031V0.941406Z" fill="white"/>
</mask>
<g mask="url(#mask1_634_37653)">
<path fill-rule="evenodd" clip-rule="evenodd" d="M45.0461 50.9414H6.01219C2.877 50.9414 0.332031 48.4189 0.332031 45.3062V6.58011C0.332031 3.466 2.877 0.941406 6.01219 0.941406H45.0461C48.1862 0.941406 50.7262 3.466 50.7262 6.58081V45.3055C50.7262 48.4189 48.1862 50.9414 45.0461 50.9414Z" fill="black"/>
</g>
<path fill-rule="evenodd" clip-rule="evenodd" d="M41.6564 18.4364C41.6564 11.2863 34.4361 5.49023 25.5294 5.49023C16.6199 5.49023 9.40234 11.287 9.40234 18.4364C9.40234 21.8737 11.081 24.9857 13.7988 27.3045L13.7882 27.3066L13.8683 27.3635C14.0243 27.4949 14.1831 27.6249 14.3461 27.7527C15.3818 28.6704 17.4982 31.039 17.4982 35.0391C17.4982 35.0412 17.1265 37.5476 25.5294 37.5476C33.9365 37.5476 33.5606 35.0391 33.5606 35.0391L33.5585 35.037C33.5606 31.0425 35.6734 28.6753 36.7084 27.7549C36.8735 27.6256 37.033 27.4949 37.1918 27.3614L37.2684 27.3066L37.2593 27.3045C39.9778 24.9857 41.6564 21.873 41.6564 18.4364ZM26.0367 22.8567C26.6093 23.7308 27.4792 25.3083 27.6556 27.036C27.6879 27.3649 27.4125 27.6502 27.0555 27.6502H24.0011C23.6442 27.6502 23.3688 27.3649 23.4039 27.036C23.5796 25.3075 24.4508 23.7308 25.02 22.8574C25.2539 22.5019 25.8048 22.5012 26.0367 22.8567ZM15.4704 18.4364C15.4704 15.5212 17.2754 13.1561 19.4993 13.1561C21.7246 13.1561 23.529 15.5212 23.529 18.4364C23.529 21.3531 21.7246 23.7175 19.4993 23.7175C17.2754 23.7175 15.4704 21.3531 15.4704 18.4364ZM29.9757 32.9516H21.0838C20.6467 32.9516 20.2933 32.6003 20.2933 32.166C20.2933 31.7325 20.6467 31.3826 21.0838 31.3826H29.9757C30.412 31.3826 30.7655 31.7325 30.7655 32.166C30.7653 32.2695 30.7447 32.3719 30.7049 32.4674C30.6651 32.5629 30.6068 32.6496 30.5335 32.7226C30.4601 32.7956 30.3731 32.8533 30.2774 32.8926C30.1817 32.9319 30.0792 32.952 29.9757 32.9516ZM31.5574 23.7175C29.3356 23.7175 27.5284 21.3531 27.5284 18.4364C27.5284 15.5212 29.3356 13.1561 31.5574 13.1561C33.7847 13.1561 35.5884 15.5212 35.5884 18.4364C35.5884 21.3531 33.7847 23.7175 31.5574 23.7175ZM24.1965 43.2031C24.3005 42.9797 24.3876 42.6551 24.46 42.2124C24.5302 41.7726 24.5668 41.3341 24.5668 40.9055V40.8303H19.2126V41.6152H23.6041C23.5486 42.1262 23.4294 42.6282 23.2493 43.1097L23.2128 43.2052L23.7313 43.2298H22.0998V41.9693H21.1484V43.2298H18.3449V44.0273H25.4015V43.2298H24.1873L24.1965 43.2031ZM23.3582 46.0671C23.1003 46.1634 22.6162 46.2133 21.9164 46.2133C21.2194 46.2133 20.7317 46.1662 20.4725 46.0706C20.2336 45.9821 20.1176 45.8528 20.1176 45.6771C20.1176 45.5008 20.2209 45.3757 20.4352 45.2963C20.7079 45.1944 21.2067 45.1417 21.9164 45.1417C22.612 45.1417 23.1039 45.1944 23.3814 45.2963C23.6027 45.3757 23.7095 45.5008 23.7095 45.6771C23.7095 45.8486 23.5957 45.9758 23.3582 46.0671ZM23.992 44.666C23.5704 44.4517 22.872 44.3428 21.9164 44.3428C20.9524 44.3428 20.2568 44.4482 19.8492 44.6527C19.4269 44.8691 19.2133 45.2127 19.2133 45.6771C19.2133 46.143 19.4269 46.488 19.8506 46.7009C20.268 46.9103 20.9418 47.0129 21.9164 47.0129C22.8741 47.0129 23.5669 46.9075 23.9744 46.7009C24.3981 46.4894 24.6138 46.1444 24.6138 45.6771C24.6138 45.2113 24.403 44.8712 23.992 44.6653M28.4299 43.6409L28.328 41.8737H29.9883L29.9251 43.6409H28.4292H28.4299ZM29.741 45.5942V44.4398H32.1827V43.6409H30.8617L30.9496 41.8737H31.7499V41.0531H26.5658V41.8737H27.3724L27.468 43.6409H26.133V44.4398H28.7974V45.5949H25.6657V46.417H32.7132V45.5949L29.741 45.5942Z" fill="#FEFEFE"/>
</svg>
