<svg width="51" height="51" viewBox="0 0 51 51" fill="none" xmlns="http://www.w3.org/2000/svg">
<mask id="mask0_634_37650" style="mask-type:luminance" maskUnits="userSpaceOnUse" x="0" y="0" width="51" height="51">
<path d="M0.332031 0.941406H50.7304V50.9414H0.332031V0.941406Z" fill="white"/>
</mask>
<g mask="url(#mask0_634_37650)">
<path fill-rule="evenodd" clip-rule="evenodd" d="M45.0482 50.9407H6.015C2.87841 50.9407 0.332031 48.4182 0.332031 45.3034V6.5773C0.332031 3.466 2.87841 0.941406 6.0143 0.941406H45.0482C48.1862 0.941406 50.7297 3.466 50.7297 6.5773V45.3034C50.7297 48.4189 48.1862 50.9407 45.0482 50.9407Z" fill="black"/>
</g>
<path fill-rule="evenodd" clip-rule="evenodd" d="M34.1489 20.5461V10.1962L37.1857 13.1642C37.1969 13.174 37.2096 13.1754 37.2194 13.1852L39.4658 15.3803C39.6921 15.6005 39.9953 15.7237 40.3111 15.7237C40.6268 15.7237 40.93 15.6005 41.1563 15.3803C41.2669 15.2732 41.3548 15.1451 41.4149 15.0033C41.4749 14.8616 41.5059 14.7093 41.5059 14.5554C41.5059 14.4015 41.4749 14.2492 41.4149 14.1074C41.3548 13.9657 41.2669 13.8375 41.1563 13.7305L33.3022 6.05413C33.2143 5.96818 33.0963 5.92001 32.9734 5.91992L32.9677 5.92133L32.9621 5.91992L32.9565 5.92133C32.9523 5.92133 32.9509 5.91992 32.9495 5.91992C32.8265 5.91956 32.7083 5.96779 32.6206 6.05413L26.2378 12.2915C25.3968 8.67077 22.0824 5.95716 18.1272 5.95716C13.5362 5.95716 9.80304 9.60669 9.80304 14.0952C9.80304 18.1845 12.9073 21.5685 16.9327 22.139V27.3849H10.4171C9.75737 27.3849 9.22266 27.9098 9.22266 28.5534C9.22266 29.1956 9.75737 29.7205 10.4171 29.7205H16.9327V35.5595C16.9327 36.2024 17.4682 36.7259 18.1272 36.7259C18.7863 36.7259 19.3217 36.2024 19.3217 35.5595V29.7205H24.7222C25.2872 33.6729 28.7589 36.7259 32.9572 36.7259C37.5455 36.7259 41.2793 33.0756 41.2793 28.5879C41.2793 24.4985 38.1736 21.1124 34.1489 20.5461ZM38.8784 28.5879C38.8784 31.7807 36.2224 34.3776 32.9565 34.3776C29.6892 34.3776 27.0332 31.7807 27.0332 28.5879C27.0332 25.3979 29.6892 22.7981 32.9565 22.7981C36.2231 22.7981 38.8784 25.3979 38.8784 28.5879ZM18.1272 8.30399C21.3931 8.30399 24.0491 10.9031 24.0491 14.0952C24.0491 17.2866 21.3931 19.8849 18.1272 19.8849C14.8607 19.8849 12.204 17.2866 12.204 14.0952C12.204 10.9031 14.8607 8.30399 18.1272 8.30399ZM26.3151 15.5173L31.762 10.1962V20.5461C28.1399 21.0555 25.2703 23.8499 24.7335 27.3849H19.3217V22.139C22.8673 21.6366 25.6926 18.949 26.3151 15.5173ZM20.8184 45.8005H21.7697V40.6747H20.8184V42.5142H19.0119V43.3504H20.8184V45.8005ZM17.5553 44.8582H16.6348V47.0083H21.9953V46.1715H17.5546L17.5553 44.8582Z" fill="#FEFEFE"/>
<path fill-rule="evenodd" clip-rule="evenodd" d="M17.4326 43.3202C17.545 43.609 17.701 43.9203 17.8985 44.2456C18.1282 44.6257 18.3453 44.918 18.5589 45.1366L18.6053 45.1829L19.4134 44.6552L19.3466 44.5906C18.9552 44.2125 18.6319 43.7696 18.391 43.2816C18.0762 42.659 17.9167 42.0154 17.9167 41.3676C17.9167 41.3535 17.9181 41.3226 17.935 41.258C17.9568 41.1624 17.9568 41.1477 17.9568 41.1385C17.9588 41.104 17.9498 41.0698 17.9309 41.0408C17.9121 41.0119 17.8844 40.9897 17.8521 40.9776C17.8205 40.9657 17.7551 40.9481 17.564 40.9481H17.0124V41.0226C17.0124 41.8138 16.8452 42.5438 16.5136 43.1966C16.2691 43.6937 15.9255 44.1356 15.5039 44.495L15.4336 44.5541L16.1693 45.1077L16.2198 45.0642C16.4609 44.8562 16.7033 44.5737 16.9394 44.2245C17.1375 43.9364 17.3012 43.6329 17.4326 43.3202ZM24.5897 45.6291C24.8434 45.5462 25.324 45.504 26.0196 45.504C26.7068 45.504 27.1846 45.5462 27.4368 45.6291C27.6673 45.705 27.779 45.8139 27.779 45.9636C27.779 46.1132 27.6673 46.2228 27.4368 46.2959C27.1853 46.3816 26.7082 46.4231 26.0196 46.4231C25.3338 46.4231 24.8567 46.3809 24.5974 46.2959C24.3635 46.2228 24.2489 46.1132 24.2489 45.9636C24.2489 45.8139 24.3607 45.705 24.5897 45.6291ZM28.0882 44.9953C28.0234 44.9649 27.9567 44.9386 27.8886 44.9166H28.722V40.6973H27.7706V42.3604H26.1159V43.1966H27.7706V44.8794C27.3827 44.7712 26.8501 44.7129 26.1566 44.7072L26.1988 44.6609C26.2845 44.5625 26.3716 44.4824 26.4602 44.4206C26.5655 44.3433 26.704 44.2709 26.8838 44.1999L27.0265 44.1437L26.8944 44.0671C26.3351 43.7446 25.9149 43.3912 25.6444 43.016C25.4008 42.6841 25.262 42.287 25.246 41.8756H26.7145V41.057H22.8317V41.8763H24.348C24.3269 42.2958 24.1309 42.711 23.7648 43.1137C23.3929 43.5189 22.9367 43.8379 22.4284 44.0482L22.3054 44.1009L22.415 44.1767C22.5633 44.2779 22.6792 44.3665 22.7593 44.4402C22.8366 44.5112 22.9153 44.6004 23.0003 44.7101L23.0425 44.7635L23.1029 44.7304C23.4935 44.5139 23.8508 44.2422 24.1639 43.9238C24.4105 43.6765 24.6094 43.4249 24.7562 43.1762C24.8827 43.4446 25.0542 43.7039 25.2664 43.947C25.5193 44.2351 25.799 44.4796 26.0941 44.6735L26.1447 44.7079C26.1039 44.7065 26.0618 44.7065 26.0196 44.7065C25.0303 44.7065 24.3529 44.7993 23.944 44.9932C23.521 45.1907 23.3046 45.5167 23.3046 45.9643C23.3046 46.4055 23.521 46.7302 23.9433 46.9325C24.3487 47.125 25.0478 47.2234 26.0196 47.2234C26.9878 47.2234 27.6849 47.1257 28.0924 46.9353C28.5154 46.7358 28.7318 46.409 28.7318 45.9643C28.7318 45.5216 28.514 45.1963 28.0882 44.9953ZM31.4208 45.6305C31.6766 45.5462 32.1761 45.504 32.9041 45.504C33.618 45.504 34.1105 45.5462 34.3698 45.6305C34.6059 45.705 34.7211 45.8139 34.7211 45.9636C34.7211 46.1139 34.6073 46.2221 34.3733 46.2959C34.1161 46.3816 33.6215 46.4231 32.9048 46.4231C32.1881 46.4231 31.6913 46.3809 31.4271 46.2959C31.1896 46.2221 31.0716 46.1132 31.0716 45.9636C31.0716 45.8139 31.1861 45.705 31.4208 45.6305ZM34.9797 44.9953C34.5637 44.8014 33.8857 44.7058 32.9041 44.7058C31.9014 44.7058 31.2142 44.7986 30.8067 44.9925C30.3823 45.1907 30.1687 45.516 30.1687 45.9636C30.1687 46.4048 30.3851 46.7295 30.8137 46.9318C31.2255 47.1243 31.9295 47.222 32.9041 47.222C33.8751 47.222 34.575 47.125 34.9839 46.9339C35.4097 46.7351 35.6254 46.4083 35.6254 45.9636C35.6254 45.5216 35.409 45.1963 34.9797 44.9953ZM31.2697 43.1066C31.554 43.6871 31.9605 44.1991 32.4614 44.6075L32.5064 44.644L33.2891 44.1388L33.2132 44.0749C32.9749 43.8797 32.7524 43.6659 32.5478 43.4355C32.3131 43.1717 32.1195 42.8739 31.9738 42.5522C31.8112 42.1756 31.7285 41.7694 31.7307 41.3592C31.7307 41.3282 31.7363 41.2896 31.7454 41.2432C31.7574 41.1849 31.763 41.1498 31.763 41.1392C31.7641 41.1034 31.7538 41.0681 31.7336 41.0384C31.7134 41.0088 31.6843 40.9862 31.6506 40.9741C31.5951 40.9523 31.5072 40.9418 31.3695 40.9418H30.8193V41.017C30.8193 41.5299 30.7343 42.0225 30.5657 42.4799C30.4215 42.8632 30.2251 43.2247 29.9818 43.5542C29.8061 43.7903 29.5813 44.0411 29.3157 44.2997L29.244 44.37L30.0366 44.7895L30.0781 44.7501C30.3254 44.514 30.5488 44.2618 30.7442 43.9983C30.962 43.7067 31.1383 43.4067 31.2697 43.1066Z" fill="#FEFEFE"/>
<path fill-rule="evenodd" clip-rule="evenodd" d="M34.6367 44.8711H35.5888V40.6602H34.6374V42.1715H32.7578V43.0077H34.6374L34.6367 44.8711Z" fill="#FEFEFE"/>
</svg>
