<svg width="51" height="51" viewBox="0 0 51 51" fill="none" xmlns="http://www.w3.org/2000/svg">
<path fill-rule="evenodd" clip-rule="evenodd" d="M44.4802 50.9414H5.75415C5.01393 50.9415 4.28094 50.7958 3.59703 50.5126C2.91313 50.2294 2.29171 49.8142 1.76826 49.2908C1.24481 48.7674 0.829582 48.1461 0.54629 47.4622C0.262997 46.7783 0.117187 46.0454 0.117188 45.3051L0.117188 6.57977C0.117187 5.08462 0.711036 3.65069 1.76813 2.59334C2.82523 1.53598 4.25901 0.941776 5.75415 0.941406L44.4802 0.941406C45.9754 0.941591 47.4094 1.53559 48.4667 2.5928C49.524 3.65001 50.1182 5.08386 50.1186 6.57907V45.3051C50.1185 46.0455 49.9726 46.7785 49.6892 47.4624C49.4057 48.1463 48.9904 48.7677 48.4668 49.2911C47.9432 49.8145 47.3217 50.2296 46.6377 50.5128C45.9536 50.7959 45.2205 50.9416 44.4802 50.9414Z" fill="black"/>
<path fill-rule="evenodd" clip-rule="evenodd" d="M25.1182 6.23242C15.5592 6.23242 7.80859 11.6728 7.80859 18.3812C7.80859 23.9694 13.18 28.6722 20.4949 30.093C20.962 30.1829 21.3064 30.5719 21.3036 31.0397L21.3029 31.9836C21.0665 33.9237 19.1627 36.2144 17.5969 37.1855C17.5969 37.1855 24.9809 36.6787 28.0692 30.9818C28.3097 30.544 28.7628 30.2652 29.2627 30.1801C36.8209 28.8786 42.4279 24.09 42.4279 18.3812C42.4279 11.6728 34.6772 6.23242 25.1182 6.23242ZM16.8301 19.9191C15.9901 19.9191 15.3125 19.254 15.3125 18.4307C15.3125 17.6088 15.9901 16.9438 16.8301 16.9438C17.6681 16.9438 18.3478 17.6088 18.3478 18.4307C18.3478 19.2533 17.6681 19.9191 16.8301 19.9191ZM25.1182 19.9191C24.2796 19.9191 23.5999 19.254 23.5999 18.4307C23.5999 17.6088 24.2796 16.9438 25.1182 16.9438C25.9562 16.9438 26.6359 17.6088 26.6359 18.4307C26.6359 19.2533 25.9562 19.9191 25.1182 19.9191ZM33.4057 19.9191C32.5677 19.9191 31.8901 19.254 31.8901 18.4307C31.8901 17.6088 32.5677 16.9438 33.4057 16.9438C34.2457 16.9438 34.9233 17.6088 34.9233 18.4307C34.9233 19.2533 34.2457 19.9191 33.4057 19.9191ZM23.1307 43.4395H22.5765V40.98H21.6981V46.8024H22.5765V44.2837H23.1307V47.3538H24.0293V40.6837H23.1314L23.1307 43.4395Z" fill="#FEFEFE"/>
<path fill-rule="evenodd" clip-rule="evenodd" d="M21.4723 44.587C21.0332 44.7083 20.5842 44.81 20.1429 44.8909C19.8543 44.9418 19.5365 44.9892 19.1984 45.0317V42.3583H20.9746V41.5308H18.2852V45.9184H18.3639C18.7146 45.9184 19.2088 45.8606 19.8348 45.7476C20.4692 45.634 21.052 45.5002 21.5637 45.3475L21.7818 45.2687L21.7233 44.5005L21.4723 44.587ZM28.2782 44.7327C27.9927 44.325 27.7678 43.8782 27.6104 43.4061C27.4173 42.8365 27.3183 42.2022 27.3183 41.5204C27.3183 41.5162 27.3211 41.496 27.3364 41.4228C27.3483 41.3831 27.3553 41.3422 27.3573 41.3008C27.3573 41.2283 27.3183 41.1718 27.2458 41.1405C27.19 41.1161 27.0994 41.1028 26.9627 41.1028H26.4141V41.1781C26.4141 42.1401 26.2635 43.031 25.9645 43.8243C25.7016 44.5295 25.3096 45.1796 24.8087 45.7414L24.7508 45.8048L25.5246 46.29L25.5685 46.244C25.8334 45.9693 26.0962 45.6006 26.3458 45.1481C26.5529 44.7773 26.7247 44.3877 26.8589 43.9847C27.0178 44.375 27.2235 44.7703 27.4695 45.1628C27.7428 45.5999 28.0147 45.9491 28.2768 46.2008L28.3235 46.244L29.1091 45.7351L29.0541 45.6724C28.6818 45.2492 28.4204 44.932 28.2782 44.7327ZM30.7606 40.6602H29.8167V47.3287H30.7606V44.3897H31.9492V43.5545H30.7606V40.6602Z" fill="#FEFEFE"/>
</svg>
