<svg width="51" height="51" viewBox="0 0 51 51" fill="none" xmlns="http://www.w3.org/2000/svg">
<path fill-rule="evenodd" clip-rule="evenodd" d="M44.6958 50.9414H5.96613C5.22592 50.9413 4.49299 50.7954 3.8092 50.512C3.1254 50.2285 2.50416 49.8131 1.98095 49.2895C1.45774 48.7659 1.04281 48.1444 0.759888 47.4604C0.476962 46.7764 0.331574 46.0433 0.332032 45.3031V6.57829C0.331849 5.83823 0.477434 5.10538 0.760475 4.42158C1.04352 3.73778 1.45847 3.11642 1.98164 2.59299C2.50482 2.06956 3.12597 1.6543 3.80963 1.37092C4.49329 1.08754 5.22607 0.941589 5.96613 0.941406L44.6965 0.941406C45.4367 0.941406 46.1695 1.0872 46.8533 1.37045C47.5371 1.6537 48.1584 2.06887 48.6817 2.59225C49.205 3.11563 49.6201 3.73696 49.9033 4.42077C50.1864 5.10458 50.3321 5.83747 50.332 6.5776V45.3031C50.3326 46.0435 50.1872 46.7767 49.9042 47.4608C49.6213 48.1449 49.2062 48.7666 48.6828 49.2902C48.1595 49.8139 47.538 50.2292 46.854 50.5125C46.17 50.7959 45.4362 50.9416 44.6958 50.9414Z" fill="black"/>
<path fill-rule="evenodd" clip-rule="evenodd" d="M37.5794 24.8681C39.3041 22.721 40.3372 20.0684 40.3372 17.1859C40.3372 10.0564 34.0987 4.27734 26.4039 4.27734C19.8412 4.27734 14.3542 8.48305 12.875 14.1408L12.861 14.1457L10.557 23.4515C10.4371 23.9305 10.8247 24.3899 11.3545 24.4038L13.6885 24.4582V29.1198C13.6871 30.1613 14.5906 31.0055 15.7143 31.0243L18.4108 31.0536C19.0821 31.0641 19.6447 31.5207 19.7423 32.1369V35.0815C19.7423 35.0815 19.7423 37.8038 27.4126 37.8038C34.7045 37.8038 35.1053 35.0815 35.1053 35.0815C35.1053 35.0815 34.9276 28.4966 37.5898 24.8813L37.5794 24.8681ZM26.4611 32.5817C25.5374 32.5817 24.7901 31.8887 24.7901 31.032C24.7901 30.1745 25.5374 29.4809 26.4611 29.4809C27.3861 29.4809 28.1355 30.1745 28.1355 31.032C28.1355 31.8887 27.3861 32.5817 26.4611 32.5817ZM33.6937 19.1204C33.1834 20.0545 32.3761 20.8945 31.2984 21.6188C30.2611 22.3138 27.8476 24.1835 27.8476 26.4708C27.8476 27.1818 27.2293 27.7555 26.4611 27.7555C25.697 27.7555 25.0766 27.1825 25.0766 26.4708C25.0766 23.1253 27.9571 20.6937 29.6727 19.54C30.3907 19.0562 30.9136 18.5243 31.2238 17.959C31.6763 17.1357 31.8684 16.1945 31.7745 15.2597C31.5514 12.9774 29.5326 11.0659 27.0759 10.8163C25.5325 10.6525 24.0518 11.0924 22.9058 12.0418C21.7764 12.9795 21.1281 14.3214 21.1281 15.7268C21.1281 16.4344 20.5091 17.0088 19.743 17.0088C18.9775 17.0088 18.3571 16.4344 18.3571 15.7261C18.3571 13.5943 19.3421 11.5525 21.057 10.131C22.7691 8.70752 25.0752 8.02365 27.3799 8.26276C31.1805 8.65036 34.1879 11.496 34.5337 15.0248C34.6757 16.4438 34.3828 17.8718 33.6937 19.1204ZM19.3031 43.4518L19.3226 43.5104L19.3867 43.5034C19.9444 43.4386 20.4847 43.311 20.9915 43.1249C21.5088 42.9339 21.9005 42.7115 22.1619 42.4647C22.4387 42.7714 22.8465 43.0377 23.3777 43.2608C23.8399 43.4546 24.3188 43.5871 24.7998 43.6484L24.8647 43.6568L24.8842 43.5975C24.9553 43.3905 25.1031 43.1702 25.3206 42.9457L25.43 42.8363L25.2725 42.8216C24.6851 42.7684 24.1079 42.6338 23.5576 42.4215C23.0661 42.2305 22.7608 42.0241 22.6618 41.8241H24.7301V41.0042H19.4739V41.8241H21.66C21.5297 42.0241 21.2139 42.213 20.7168 42.3852C20.1511 42.5874 19.5553 42.6928 18.9545 42.6968H18.7942L18.8946 42.8188C19.1156 43.0858 19.2529 43.2998 19.3038 43.4525M18.5983 44.7324H21.6893V47.2839H22.6165V44.7324H25.5904V43.9356H18.5983V44.7324ZM28.7755 43.9907C28.5174 43.3427 28.3815 42.6526 28.3747 41.9551H29.3938V41.1186H26.2582V41.9551H27.4844C27.4694 42.6845 27.2924 43.4014 26.9665 44.0541C26.6744 44.6495 26.3196 45.1235 25.911 45.4651L25.8323 45.5306L25.9201 45.5843C26.0637 45.6707 26.1711 45.7474 26.2498 45.8213C26.2728 45.8394 26.3314 45.9029 26.4325 46.0054L26.5559 46.1308L26.6123 46.0799C26.8982 45.8206 27.1659 45.4923 27.4071 45.1068C27.6029 44.7875 27.7633 44.4626 27.8867 44.1322C27.9898 44.4543 28.1223 44.7791 28.2812 45.0956C28.4597 45.4456 28.6577 45.7649 28.871 46.0451L28.9247 46.1169L28.9888 46.0542C29.0885 45.9586 29.1966 45.8729 29.3074 45.7962C29.4175 45.723 29.5374 45.6624 29.6636 45.6136L29.764 45.5752L29.6943 45.4951C29.3006 45.0525 28.9894 44.543 28.7755 43.9907Z" fill="#FEFEFE"/>
<path fill-rule="evenodd" clip-rule="evenodd" d="M29.8685 43.026H28.9727V43.8626H29.8685V46.7256H30.7412V40.918H29.8685V43.026Z" fill="#FEFEFE"/>
<mask id="mask0_634_37649" style="mask-type:luminance" maskUnits="userSpaceOnUse" x="0" y="0" width="51" height="51">
<path d="M0.332031 50.9414H50.3313V0.941406H0.332031V50.9414Z" fill="white"/>
</mask>
<g mask="url(#mask0_634_37649)">
<path fill-rule="evenodd" clip-rule="evenodd" d="M31.1523 47.3288H32.0656V40.6602H31.1523V47.3288Z" fill="#FEFEFE"/>
</g>
</svg>
