<svg width="51" height="51" viewBox="0 0 51 51" fill="none" xmlns="http://www.w3.org/2000/svg">
<path fill-rule="evenodd" clip-rule="evenodd" d="M44.6951 50.9414H5.969C5.22865 50.9415 4.49555 50.7957 3.81155 50.5124C3.12756 50.2291 2.50608 49.8139 1.98261 49.2903C1.45914 48.7668 1.04394 48.1453 0.760733 47.4612C0.477523 46.7772 0.331848 46.0441 0.332031 45.3037V6.57907C0.332401 5.0841 0.92639 3.65046 1.98343 2.59329C3.04046 1.53613 4.47403 0.941961 5.969 0.941406L44.6951 0.941406C46.1901 0.941591 47.6239 1.53564 48.681 2.59289C49.7382 3.65013 50.332 5.08399 50.332 6.57907V45.3037C50.3324 46.0441 50.1869 46.7773 49.9037 47.4615C49.6206 48.1456 49.2054 48.7672 48.6819 49.2907C48.1584 49.8143 47.5368 50.2296 46.8527 50.5128C46.1687 50.796 45.4355 50.9417 44.6951 50.9414Z" fill="black"/>
<path fill-rule="evenodd" clip-rule="evenodd" d="M31.6357 31.417V20.7162C31.6357 20.3537 31.8881 20.0483 32.2367 19.9898C32.3399 19.972 32.4459 19.977 32.547 20.0044C32.6481 20.0319 32.7421 20.0811 32.8222 20.1486C32.9024 20.2161 32.9668 20.3003 33.011 20.3954C33.0552 20.4904 33.0781 20.5939 33.0781 20.6987V31.3383L33.1785 31.5195C33.5619 31.7691 34.3057 32.0668 35.6923 32.0668C38.2529 32.0668 39.0267 30.0995 39.1033 28.7861L39.102 19.7513C39.0511 19.0312 38.8398 17.616 37.9635 16.7119C37.424 16.1563 36.6962 15.8774 35.8045 15.8774L35.7718 15.876C35.7557 15.8774 33.9753 15.77 33.1032 16.983C33.0112 17.1106 32.871 17.1692 32.7023 17.1748C32.6249 17.1694 32.55 17.1449 32.4843 17.1035C32.4186 17.0622 32.3642 17.0052 32.3259 16.9377C32.2743 16.8485 31.0766 14.7676 28.5809 14.7676C26.0978 14.7676 25.0869 17.0221 25.0758 17.0437C25.0438 17.1198 24.9916 17.1857 24.9247 17.234C24.8578 17.2823 24.7788 17.3113 24.6965 17.3177C24.6145 17.3247 24.532 17.31 24.4574 17.2751C24.3827 17.2403 24.3186 17.1864 24.2713 17.119C24.2476 17.0841 23.5581 16.1618 21.6341 16.3828C19.6633 16.6198 18.7068 18.5056 18.6971 18.5244C18.6698 18.579 18.6319 18.6276 18.5858 18.6674C18.5396 18.7073 18.4859 18.7375 18.428 18.7565C18.3704 18.7767 18.3092 18.7849 18.2483 18.7806C18.1874 18.7763 18.128 18.7596 18.0738 18.7314C18.0738 18.7314 17.6402 18.5397 16.6154 18.5397C15.6172 18.5397 13.707 19.5527 13.707 21.1456V29.0106C13.7126 29.1082 13.8799 31.9176 16.5415 31.9176C16.5917 31.9204 17.5538 31.9943 18.4147 31.5L18.527 31.3132V22.8968C18.527 22.5398 18.7835 22.2275 19.1279 22.1718C19.3321 22.1341 19.5462 22.1948 19.7086 22.3307C19.8738 22.4701 19.9672 22.6695 19.9672 22.8835V31.3592L20.0251 31.5084C20.4726 31.949 21.2785 32.4732 22.5787 32.4732C23.6878 32.4732 24.3549 32.1142 24.7188 31.8095L24.7851 31.6534V21.4558C24.7851 21.0926 25.0374 20.7887 25.3832 20.7301L25.5052 20.7196C25.6963 20.7206 25.8793 20.7969 26.0144 20.932C26.1495 21.0671 26.2258 21.2501 26.2267 21.4412V31.4986L26.2964 31.6583C26.6903 32.0319 27.4467 32.4739 28.8145 32.4739C30.1857 32.4739 31.0676 31.9859 31.5653 31.5767L31.6357 31.417Z" fill="#FEFEFE"/>
<path fill-rule="evenodd" clip-rule="evenodd" d="M42.6953 27.676C42.4994 27.0486 41.4307 24.8073 40.5035 22.9119V28.5642C40.5035 28.6743 40.4965 28.7824 40.4889 28.8918C40.5216 30.2721 39.8489 32.8285 37.0025 33.3883C34.5535 33.8707 33.0896 33.2042 32.4796 32.8124C31.9804 33.168 30.8762 33.7745 29.0163 33.9034C29.2289 34.6236 29.9462 35.9404 32.368 35.9404H37.7289C38.4609 35.9404 40.2449 35.2628 41.75 32.6988C43.2188 30.1961 42.9922 28.6346 42.6953 27.676ZM16.6144 17.1501C17.1358 17.1501 17.5471 17.1919 17.8643 17.2463C18.4318 16.4599 19.6016 15.2288 21.4699 15.0064C22.7575 14.8517 23.7425 15.1166 24.4208 15.4888C25.1144 14.5777 26.4341 13.3793 28.5799 13.3793C29.2386 13.3793 29.8242 13.4965 30.3471 13.6721L32.1561 11.2601L26.4013 11.9502L27.0922 6.19615L22.4528 9.67063L20.1732 4.3418L17.8943 9.67063L13.2556 6.19615L13.9458 11.9509L8.19029 11.2601L11.6676 15.8981L6.33594 18.1763L11.6676 20.4573L8.19029 25.0946L12.3222 24.6003V21.1418C12.3222 18.7437 14.9057 17.1501 16.6144 17.1501Z" fill="#FEFEFE"/>
<path fill-rule="evenodd" clip-rule="evenodd" d="M16.1704 45.8488H20.3949V47.3232H21.3312V45.0659H16.1704V45.8488ZM17.9425 42.7766L17.833 41.8341H19.6386L19.5919 42.7766H17.9425ZM19.274 43.9666V43.5741H21.4093V42.7766H20.496L20.5358 41.8341H21.472V41.0352H16.0344V41.8341H16.9358L17.0383 42.7766H16.1299V43.5741H18.3447V43.9666H15.2773V44.7634H22.2695V43.9666H19.274ZM26.4683 44.6965L26.5401 44.6839L26.4613 43.8843L26.377 43.899C25.9824 43.9701 25.5098 44.0265 24.9737 44.0711C24.546 44.107 24.1173 44.1281 23.6882 44.1346V43.2158H26.0542V41.0672H22.7749V41.9038H25.141V42.4022H22.7673V44.9955H22.8447C23.2629 44.9955 23.8903 44.9579 24.7046 44.8875C25.4993 44.8199 26.1093 44.7529 26.4683 44.6965ZM23.3501 45.9945H27.7001V47.4689H28.6433V45.151H23.3501V45.9945Z" fill="#FEFEFE"/>
<path fill-rule="evenodd" clip-rule="evenodd" d="M27.7004 41.5699H26.2148V42.3974H27.6997V42.99H26.2148V43.8265H27.6997V45.0005H28.6436V40.6992H27.7004V41.5699ZM31.216 45.6328C31.4691 45.5491 31.964 45.5059 32.687 45.5059C33.3959 45.5059 33.8839 45.5484 34.1419 45.6328C34.3754 45.7088 34.4904 45.8161 34.4904 45.966C34.4904 46.1159 34.3775 46.2239 34.1433 46.2978C33.8881 46.3836 33.3987 46.4254 32.6863 46.4254C31.9766 46.4254 31.4837 46.3836 31.2209 46.2978C30.9853 46.2246 30.8682 46.1152 30.8682 45.966C30.8682 45.8161 30.9825 45.7074 31.216 45.6328ZM34.7456 44.9977C34.3343 44.8032 33.6609 44.7077 32.6863 44.7077C31.6922 44.7077 31.0104 44.8011 30.606 44.9942C30.185 45.1922 29.9717 45.5185 29.9717 45.966C29.9717 46.4066 30.1871 46.7322 30.613 46.9336C31.0215 47.1267 31.7187 47.2243 32.6863 47.2243C33.649 47.2243 34.3426 47.1267 34.7512 46.9364C35.1736 46.737 35.3883 46.4108 35.3883 45.966C35.3883 45.524 35.1722 45.1992 34.7456 44.9977Z" fill="#FEFEFE"/>
<path fill-rule="evenodd" clip-rule="evenodd" d="M34.3996 44.8708H35.3463V40.6602H34.3989V42.1715H32.5347V43.0081H34.3989L34.3996 44.8708ZM31.0624 43.1071C31.2004 43.3992 31.3859 43.6885 31.6131 43.9715C31.8174 44.2197 32.03 44.4337 32.2433 44.608L32.2908 44.6456L33.0673 44.1395L32.9921 44.0754C32.7132 43.8384 32.4922 43.6236 32.3305 43.4354C32.0968 43.1721 31.905 42.8744 31.7616 42.5529C31.5999 42.1759 31.5178 41.7696 31.5204 41.3594C31.5204 41.3287 31.526 41.2897 31.5344 41.2436C31.543 41.2093 31.5489 41.1744 31.5518 41.1391C31.5528 41.1033 31.5424 41.0682 31.5223 41.0387C31.5021 41.0091 31.4732 40.9867 31.4396 40.9746C31.3859 40.9529 31.298 40.9425 31.1635 40.9425H30.6163V41.0178C30.6163 41.5302 30.5312 42.0223 30.3653 42.4797C30.222 42.8628 30.0269 43.2245 29.7853 43.5546C29.6096 43.7916 29.3865 44.0433 29.1244 44.3006L29.0547 44.3703L29.8376 44.7906L29.8808 44.7502C30.1248 44.5153 30.3465 44.2643 30.5424 43.9994C30.7585 43.7066 30.9327 43.4068 31.0624 43.1071Z" fill="#FEFEFE"/>
</svg>
