<svg width="51" height="51" viewBox="0 0 51 51" fill="none" xmlns="http://www.w3.org/2000/svg">
<g clip-path="url(#clip0_634_37643)">
<path d="M49.2917 25.9408C49.2917 39.1727 38.5653 49.8991 25.3333 49.8991C12.1014 49.8991 1.375 39.1727 1.375 25.9408C1.375 12.7088 12.1014 1.98242 25.3333 1.98242C38.5653 1.98242 49.2917 12.7088 49.2917 25.9408Z" fill="#FFC930"/>
<path fill-rule="evenodd" clip-rule="evenodd" d="M25.332 48.4414C37.7584 48.4414 47.832 38.3678 47.832 25.9414C47.832 13.515 37.7584 3.44141 25.332 3.44141C12.9056 3.44141 2.83203 13.515 2.83203 25.9414C2.83203 38.3678 12.9056 48.4414 25.332 48.4414ZM25.332 50.9414C39.139 50.9414 50.332 39.7483 50.332 25.9414C50.332 12.1345 39.139 0.941406 25.332 0.941406C11.5251 0.941406 0.332031 12.1345 0.332031 25.9414C0.332031 39.7483 11.5251 50.9414 25.332 50.9414Z" fill="white"/>
<path d="M10.332 19.3477V13.9817H19.6806V38.6192H13.6737V19.3477H10.332ZM23.4265 33.9949C24.1911 33.3879 24.5397 33.106 24.4723 33.1511C26.6772 31.3289 28.4098 29.8324 29.6702 28.6629C30.9522 27.4928 32.0327 26.2664 32.9098 24.9838C33.7876 23.7011 34.2265 22.4525 34.2265 21.2379C34.2265 20.315 34.0126 19.5949 33.5848 19.0782C33.1577 18.5602 32.5161 18.3011 31.6612 18.3011C30.8063 18.3011 30.1313 18.6275 29.6362 19.2803C29.164 19.9102 28.9279 20.8102 28.9279 21.9803H23.3584C23.4036 20.0678 23.8084 18.4699 24.5737 17.1879C25.3612 15.9053 26.3848 14.9602 27.6452 14.3525C28.9272 13.7449 30.3452 13.4414 31.8973 13.4414C34.5751 13.4414 36.589 14.1275 37.939 15.5004C39.3112 16.8727 39.9973 18.6615 39.9973 20.8664C39.9973 23.274 39.1765 25.5122 37.5334 27.5824C35.8911 29.6303 33.7987 31.6324 31.2556 33.59H40.3688V38.2817H23.4265V33.9949Z" fill="black"/>
</g>
<defs>
<clipPath id="clip0_634_37643">
<rect width="50" height="50" fill="white" transform="translate(0.332031 0.941406)"/>
</clipPath>
</defs>
</svg>
