<svg width="51" height="51" viewBox="0 0 51 51" fill="none" xmlns="http://www.w3.org/2000/svg">
<g clip-path="url(#clip0_634_37644)">
<path d="M49.2917 25.9388C49.2917 39.1707 38.5653 49.8971 25.3333 49.8971C12.1014 49.8971 1.375 39.1707 1.375 25.9388C1.375 12.7069 12.1014 1.98047 25.3333 1.98047C38.5653 1.98047 49.2917 12.7069 49.2917 25.9388Z" fill="#FFC930"/>
<path fill-rule="evenodd" clip-rule="evenodd" d="M25.332 48.4395C37.7584 48.4395 47.832 38.3658 47.832 25.9395C47.832 13.5131 37.7584 3.43945 25.332 3.43945C12.9056 3.43945 2.83203 13.5131 2.83203 25.9395C2.83203 38.3658 12.9056 48.4395 25.332 48.4395ZM25.332 50.9395C39.139 50.9395 50.332 39.7464 50.332 25.9395C50.332 12.1325 39.139 0.939453 25.332 0.939453C11.5251 0.939453 0.332031 12.1325 0.332031 25.9395C0.332031 39.7464 11.5251 50.9395 25.332 50.9395Z" fill="white"/>
<path d="M9.08203 18.8395V13.4735H18.4306V38.111H12.4237V18.8395H9.08203ZM39.7265 18.502H29.1959V23.1596C29.6459 22.6645 30.2765 22.2596 31.0862 21.9443C31.8959 21.6297 32.7737 21.4721 33.7181 21.4721C35.4056 21.4721 36.8015 21.854 37.9036 22.6193C39.0286 23.3846 39.8501 24.3742 40.3675 25.5895C40.8848 26.8047 41.1438 28.1207 41.1438 29.5381C41.1438 32.1707 40.4008 34.2631 38.9161 35.8158C37.4313 37.3457 35.339 38.111 32.6383 38.111C30.839 38.111 29.2751 37.8068 27.9473 37.1992C26.6202 36.5693 25.5959 35.7033 24.8765 34.6006C24.1563 33.4985 23.7626 32.227 23.6952 30.7867H29.3313C29.4549 31.4639 29.7992 32.0812 30.3105 32.5422C30.8272 32.9922 31.5362 33.2172 32.4362 33.2172C33.4938 33.2172 34.2813 32.8797 34.7987 32.2047C35.3161 31.5297 35.5751 30.6297 35.5751 29.5047C35.5751 28.402 35.305 27.5582 34.7647 26.9735C34.2251 26.3881 33.4376 26.0957 32.4022 26.0957C31.6376 26.0957 31.0077 26.2867 30.5126 26.6693C30.0233 27.0206 29.6759 27.5355 29.5334 28.1207H23.9647V13.4395H39.7265V18.502Z" fill="black"/>
</g>
<defs>
<clipPath id="clip0_634_37644">
<rect width="50" height="50" fill="white" transform="translate(0.332031 0.939453)"/>
</clipPath>
</defs>
</svg>
