<svg width="51" height="51" viewBox="0 0 51 51" fill="none" xmlns="http://www.w3.org/2000/svg">
<g clip-path="url(#clip0_634_37645)">
<path d="M49.2917 25.9388C49.2917 39.1707 38.5653 49.8971 25.3333 49.8971C12.1014 49.8971 1.375 39.1707 1.375 25.9388C1.375 12.7069 12.1014 1.98047 25.3333 1.98047C38.5653 1.98047 49.2917 12.7069 49.2917 25.9388Z" fill="#FFC930"/>
<path fill-rule="evenodd" clip-rule="evenodd" d="M25.332 48.4395C37.7584 48.4395 47.832 38.3658 47.832 25.9395C47.832 13.5131 37.7584 3.43945 25.332 3.43945C12.9056 3.43945 2.83203 13.5131 2.83203 25.9395C2.83203 38.3658 12.9056 48.4395 25.332 48.4395ZM25.332 50.9395C39.139 50.9395 50.332 39.7464 50.332 25.9395C50.332 12.1325 39.139 0.939453 25.332 0.939453C11.5251 0.939453 0.332031 12.1325 0.332031 25.9395C0.332031 39.7464 11.5251 50.9395 25.332 50.9395Z" fill="white"/>
<path d="M9.70703 19.3797V14.0131H19.0556V38.6506H13.0487V19.3797H9.70703ZM29.214 31.4283C29.5515 33.2061 30.5862 34.095 32.3181 34.095C33.5112 34.095 34.3549 33.5658 34.8501 32.5082C35.3452 31.4506 35.5924 29.7297 35.5924 27.3443C35.0973 28.0422 34.4223 28.5818 33.5674 28.9645C32.7126 29.3464 31.7563 29.5381 30.6987 29.5381C29.2584 29.5381 27.9765 29.2457 26.8515 28.661C25.7265 28.0533 24.8376 27.1645 24.1848 25.9943C23.5549 24.802 23.2404 23.3624 23.2404 21.6749C23.2404 20.0096 23.5772 18.5582 24.2522 17.3207C24.9324 16.1001 25.9527 15.1034 27.189 14.452C28.4709 13.777 29.9779 13.4395 31.7112 13.4395C35.0411 13.4395 37.3702 14.4742 38.6973 16.5443C40.0251 18.6145 40.689 21.6631 40.689 25.6901C40.689 28.6158 40.4181 31.0346 39.8786 32.9471C39.3612 34.8367 38.4723 36.277 37.2119 37.2665C35.9751 38.2568 34.2765 38.752 32.1161 38.752C30.4063 38.752 28.9438 38.4145 27.7286 37.7395C26.5362 37.0645 25.614 36.1756 24.9612 35.0728C24.3313 33.9707 23.9709 32.7554 23.8813 31.4283H29.214ZM32.0147 24.9818C32.9598 24.9818 33.714 24.7006 34.2765 24.1381C34.839 23.5533 35.1202 22.7658 35.1202 21.7756C35.1202 20.6957 34.8272 19.8631 34.2424 19.2783C33.6577 18.6929 32.8702 18.4006 31.8799 18.4006C30.8897 18.4006 30.1022 18.7047 29.5174 19.3117C28.9549 19.8971 28.6737 20.7075 28.6737 21.7422C28.6737 22.7096 28.9549 23.4971 29.5174 24.1047C30.1022 24.6895 30.9348 24.9818 32.0147 24.9818Z" fill="black"/>
</g>
<defs>
<clipPath id="clip0_634_37645">
<rect width="50" height="50" fill="white" transform="translate(0.332031 0.939453)"/>
</clipPath>
</defs>
</svg>
