<svg width="51" height="51" viewBox="0 0 51 51" fill="none" xmlns="http://www.w3.org/2000/svg">
<g clip-path="url(#clip0_634_37642)">
<path d="M49.2917 25.9408C49.2917 39.1727 38.5653 49.8991 25.3333 49.8991C12.1014 49.8991 1.375 39.1727 1.375 25.9408C1.375 12.7088 12.1014 1.98242 25.3333 1.98242C38.5653 1.98242 49.2917 12.7088 49.2917 25.9408Z" fill="#FFC930"/>
<path fill-rule="evenodd" clip-rule="evenodd" d="M25.332 48.4414C37.7584 48.4414 47.832 38.3678 47.832 25.9414C47.832 13.515 37.7584 3.44141 25.332 3.44141C12.9056 3.44141 2.83203 13.515 2.83203 25.9414C2.83203 38.3678 12.9056 48.4414 25.332 48.4414ZM25.332 50.9414C39.139 50.9414 50.332 39.7483 50.332 25.9414C50.332 12.1345 39.139 0.941406 25.332 0.941406C11.5251 0.941406 0.332031 12.1345 0.332031 25.9414C0.332031 39.7483 11.5251 50.9414 25.332 50.9414Z" fill="white"/>
<path d="M33.5084 18.3525L25.0369 38.6706H19.1306L27.7036 18.9949H17.207V14.0664H33.5084V18.3525Z" fill="black"/>
</g>
<defs>
<clipPath id="clip0_634_37642">
<rect width="50" height="50" fill="white" transform="translate(0.332031 0.941406)"/>
</clipPath>
</defs>
</svg>
