<svg width="51" height="51" viewBox="0 0 51 51" fill="none" xmlns="http://www.w3.org/2000/svg">
<g clip-path="url(#clip0_689_37353)">
<path d="M3.90234 20.2137C3.90234 29.1284 11.373 37.8965 23.1756 45.43C23.615 45.702 24.2427 45.995 24.6822 45.995C25.1216 45.995 25.7495 45.702 26.2098 45.43C37.9913 37.8965 45.462 29.1284 45.462 20.2137C45.462 12.8058 40.377 7.57422 33.5968 7.57422C29.7254 7.57422 26.5865 9.41573 24.6822 12.2408C22.8198 9.43666 19.639 7.57422 15.7676 7.57422C8.98745 7.57422 3.90234 12.8058 3.90234 20.2137ZM7.27149 20.2137C7.27149 14.6473 10.8708 10.9434 15.7257 10.9434C19.6599 10.9434 21.9198 13.3917 23.2591 15.4844C23.8241 16.3214 24.18 16.5516 24.6822 16.5516C25.1845 16.5516 25.4984 16.3005 26.1052 15.4844C27.5491 13.4336 29.7254 10.9434 33.6386 10.9434C38.4936 10.9434 42.0929 14.6473 42.0929 20.2137C42.0929 27.9982 33.8688 36.3899 25.1216 42.2074C24.9123 42.3538 24.7659 42.4584 24.6822 42.4584C24.5984 42.4584 24.452 42.3538 24.2636 42.2074C15.4955 36.3899 7.27149 27.9982 7.27149 20.2137Z" fill="black" fill-opacity="0.85"/>
</g>
<defs>
<clipPath id="clip0_689_37353">
<rect width="41.5596" height="39.6973" fill="white" transform="translate(3.90234 6.29688)"/>
</clipPath>
</defs>
</svg>
