<svg width="51" height="51" viewBox="0 0 51 51" fill="none" xmlns="http://www.w3.org/2000/svg">
<path d="M40.5258 23.5989H25.8392V29.5476H34.291C33.5044 33.3277 30.2115 35.4996 25.8392 35.4996C24.6158 35.5017 23.404 35.2677 22.2733 34.811C21.1426 34.3543 20.1153 33.6839 19.2503 32.8384C18.3853 31.9928 17.6995 30.9886 17.2325 29.8835C16.7654 28.7784 16.5262 27.594 16.5285 26.3983C16.5264 25.2027 16.7658 24.0185 17.233 22.9136C17.7002 21.8086 18.3859 20.8047 19.2509 19.9593C20.1159 19.1139 21.1431 18.4437 22.2737 17.9871C23.4043 17.5306 24.6159 17.2966 25.8392 17.2986C28.0597 17.2986 30.0669 18.0691 31.6419 19.3292L36.2276 14.8492C33.4338 12.4687 29.8517 11.0001 25.8392 11.0001C23.7683 10.9941 21.7166 11.3884 19.8021 12.1603C17.8876 12.9321 16.1481 14.0662 14.6838 15.4974C13.2194 16.9286 12.0589 18.6286 11.2692 20.4997C10.4795 22.3708 10.0761 24.376 10.0821 26.4C10.0758 28.4241 10.4791 30.4294 11.2687 32.3006C12.0584 34.1717 13.2188 35.8719 14.6832 37.3031C16.1477 38.7343 17.8872 39.8684 19.8018 40.6402C21.7164 41.4119 23.7682 41.8061 25.8392 41.7999C33.7178 41.7999 40.882 36.1995 40.882 26.4C40.882 25.4899 40.7392 24.509 40.5258 23.5989Z" fill="black"/>
</svg>
