<svg width="51" height="51" viewBox="0 0 51 51" fill="none" xmlns="http://www.w3.org/2000/svg">
<path d="M25.4019 16.9547C28.2936 16.9547 30.2443 18.2038 31.3565 19.2476L35.7028 15.004C33.0334 12.5229 29.5599 11 25.4019 11C19.3788 11 14.177 14.4564 11.6445 19.4871L16.6239 23.3542C17.873 19.6411 21.3294 16.9547 25.4019 16.9547Z" fill="#EA4335"/>
<path d="M40.1824 26.7441C40.1824 25.4779 40.0798 24.5539 39.8573 23.5957H25.3984V29.3108H33.8855C33.7144 30.731 32.7904 32.8699 30.7371 34.3073L35.5967 38.0717C38.5055 35.3853 40.1824 31.4326 40.1824 26.7441Z" fill="#4285F4"/>
<path d="M16.6391 29.4469C16.314 28.4887 16.1258 27.4621 16.1258 26.4012C16.1258 25.3403 16.314 24.3136 16.622 23.3554L11.6427 19.4883C10.5989 21.5758 10 23.9201 10 26.4012C10 28.8823 10.5989 31.2265 11.6427 33.3141L16.6391 29.4469Z" fill="#FBBC05"/>
<path d="M25.4004 41.7995C29.5584 41.7995 33.049 40.4306 35.5986 38.0693L30.739 34.3049C29.4386 35.2118 27.6933 35.8449 25.4004 35.8449C21.3279 35.8449 17.8715 33.1584 16.6395 29.4453L11.6602 33.3124C14.1926 38.3431 19.3773 41.7995 25.4004 41.7995Z" fill="#34A853"/>
</svg>
