<svg width="51" height="51" viewBox="0 0 51 51" fill="none" xmlns="http://www.w3.org/2000/svg">
<path d="M25.3286 16.3086C22.7737 16.3086 20.3235 17.3235 18.5169 19.1301C16.7103 20.9367 15.6953 23.387 15.6953 25.9419C15.6953 28.4968 16.7103 30.9471 18.5169 32.7537C20.3235 34.5603 22.7737 35.5753 25.3286 35.5753C27.8836 35.5753 30.3338 34.5603 32.1404 32.7537C33.947 30.9471 34.962 28.4968 34.962 25.9419C34.962 23.387 33.947 20.9367 32.1404 19.1301C30.3338 17.3235 27.8836 16.3086 25.3286 16.3086ZM25.3286 32.1982C23.6688 32.1982 22.077 31.5388 20.9033 30.3652C19.7297 29.1915 19.0703 27.5997 19.0703 25.9398C19.0703 24.28 19.7297 22.6882 20.9033 21.5145C22.077 20.3409 23.6688 19.6815 25.3286 19.6815C26.9885 19.6815 28.5803 20.3409 29.754 21.5145C30.9276 22.6882 31.587 24.28 31.587 25.9398C31.587 27.5997 30.9276 29.1915 29.754 30.3652C28.5803 31.5388 26.9885 32.1982 25.3286 32.1982Z" fill="black"/>
<path d="M35.3435 18.2007C36.5838 18.2007 37.5893 17.1952 37.5893 15.9548C37.5893 14.7145 36.5838 13.709 35.3435 13.709C34.1032 13.709 33.0977 14.7145 33.0977 15.9548C33.0977 17.1952 34.1032 18.2007 35.3435 18.2007Z" fill="black"/>
<path d="M43.1089 13.6701C42.6266 12.4246 41.8895 11.2936 40.945 10.3493C40.0004 9.40512 38.8691 8.66853 37.6234 8.18672C36.1658 7.63955 34.6259 7.34368 33.0693 7.31172C31.063 7.22422 30.4276 7.19922 25.3401 7.19922C20.2526 7.19922 19.6005 7.19922 17.6109 7.31172C16.0555 7.34205 14.5167 7.63797 13.0609 8.18672C11.815 8.66797 10.6834 9.40436 9.73872 10.3487C8.79407 11.2929 8.05725 12.4243 7.57552 13.6701C7.02824 15.1276 6.73305 16.6676 6.7026 18.2242C6.61302 20.2284 6.58594 20.8638 6.58594 25.9534C6.58594 31.0409 6.58594 31.6888 6.7026 33.6826C6.73385 35.2409 7.0276 36.7784 7.57552 38.2388C8.0586 39.4841 8.79614 40.615 9.74101 41.5592C10.6859 42.5033 11.8173 43.24 13.063 43.7221C14.516 44.2913 16.0555 44.6083 17.6151 44.6596C19.6214 44.7471 20.2568 44.7742 25.3443 44.7742C30.4318 44.7742 31.0839 44.7742 33.0734 44.6596C34.6299 44.628 36.1698 44.3328 37.6276 43.7867C38.8729 43.3038 40.0039 42.5666 40.9484 41.6221C41.8929 40.6776 42.6301 39.5466 43.113 38.3013C43.6609 36.843 43.9547 35.3055 43.9859 33.7471C44.0755 31.743 44.1026 31.1076 44.1026 26.018C44.1026 20.9284 44.1026 20.2826 43.9859 18.2888C43.9617 16.7102 43.665 15.1477 43.1089 13.6701ZM40.5714 33.5284C40.5579 34.729 40.3388 35.9185 39.9234 37.045C39.6106 37.8552 39.1316 38.5909 38.5173 39.2048C37.9031 39.8187 37.1671 40.2972 36.3568 40.6096C35.2427 41.0231 34.0659 41.2422 32.8776 41.2575C30.8984 41.3492 30.3401 41.3721 25.2651 41.3721C20.1859 41.3721 19.6672 41.3721 17.6505 41.2575C16.4629 41.243 15.2866 41.0238 14.1734 40.6096C13.3603 40.2992 12.6214 39.8215 12.0045 39.2075C11.3876 38.5934 10.9064 37.8567 10.5922 37.045C10.1827 35.9306 9.96367 34.7551 9.94427 33.568C9.85469 31.5888 9.83385 31.0305 9.83385 25.9555C9.83385 20.8784 9.83385 20.3596 9.94427 18.3409C9.95774 17.1409 10.1769 15.9522 10.5922 14.8263C11.2276 13.1826 12.5297 11.8888 14.1734 11.2596C15.2872 10.8474 16.4631 10.6283 17.6505 10.6117C19.6318 10.5221 20.188 10.4971 25.2651 10.4971C30.3422 10.4971 30.863 10.4971 32.8776 10.6117C34.066 10.626 35.2429 10.8452 36.3568 11.2596C37.167 11.5727 37.9029 12.0517 38.5171 12.6659C39.1314 13.2802 39.6104 14.016 39.9234 14.8263C40.3329 15.9408 40.552 17.1162 40.5714 18.3034C40.6609 20.2846 40.6839 20.8409 40.6839 25.918C40.6839 30.993 40.6839 31.5388 40.5943 33.5305H40.5714V33.5284Z" fill="black"/>
</svg>
