<svg width="51" height="51" viewBox="0 0 51 51" fill="none" xmlns="http://www.w3.org/2000/svg">
<path d="M44.3756 37.4617C42.8248 35.8992 39.0689 33.619 37.2466 32.7C34.8736 31.5047 34.6783 31.4071 32.8131 32.7928C31.5689 33.7176 30.7418 34.5438 29.2857 34.2332C27.8297 33.9227 24.6656 32.1717 21.8951 29.41C19.1246 26.6483 17.272 23.3924 16.9605 21.9412C16.649 20.4901 17.4888 19.6727 18.4049 18.4256C19.6959 16.6678 19.5982 16.3748 18.4947 14.0018C17.6343 12.1561 15.2877 8.43538 13.7193 6.89241C12.0416 5.23519 12.0416 5.52815 10.9605 5.97737C10.0804 6.34767 9.23607 6.7978 8.43806 7.3221C6.87556 8.36019 6.00837 9.22249 5.40193 10.5184C4.79548 11.8143 4.52302 14.8524 7.65486 20.5418C10.7867 26.2313 12.984 29.1405 17.5318 33.6756C22.0797 38.2108 25.5767 40.6492 30.689 43.5164C37.0133 47.0584 39.439 46.368 40.7388 45.7625C42.0386 45.1571 42.9049 44.2977 43.9449 42.7352C44.4705 41.9385 44.9217 41.0951 45.2925 40.2157C45.7427 39.1385 46.0357 39.1385 44.3756 37.4617Z" stroke="black" stroke-width="3" stroke-miterlimit="10"/>
</svg>
