<svg width="51" height="51" viewBox="0 0 51 51" fill="none" xmlns="http://www.w3.org/2000/svg">
<g clip-path="url(#clip0_643_37620)">
<path d="M21.1205 45.017C22.0204 45.017 22.7319 44.6194 23.2341 43.8451L43.0094 12.7067C43.3862 12.0999 43.5326 11.6395 43.5326 11.1582C43.5326 10.0072 42.7792 9.25391 41.6283 9.25391C40.7912 9.25391 40.3308 9.52595 39.8287 10.3212L21.0368 40.2667L11.2852 27.5017C10.762 26.7692 10.2388 26.4763 9.48549 26.4763C8.29269 26.4763 7.47656 27.2924 7.47656 28.4433C7.47656 28.9247 7.68583 29.4688 8.08343 29.971L18.9442 43.8033C19.572 44.6194 20.2207 45.017 21.1205 45.017Z" fill="black"/>
</g>
<defs>
<clipPath id="clip0_643_37620">
<rect width="36.0561" height="36.935" fill="white" transform="translate(7.47656 8.08203)"/>
</clipPath>
</defs>
</svg>
