<svg width="51" height="51" viewBox="0 0 51 51" fill="none" xmlns="http://www.w3.org/2000/svg">
<path d="M21.3333 23.5638C21.4375 22.8763 21.6667 22.2721 21.9583 21.7721C22.5833 20.6055 23.6458 20.0013 25.0833 19.9805C26.0208 19.9805 26.875 20.3971 27.4792 21.0013C28.0625 21.6471 28.4583 22.543 28.4583 23.4388H32.2083C32.1667 22.4596 31.9792 21.5638 31.5833 20.7305C31.2708 19.9388 30.7917 19.2305 30.1667 18.6471C27.1458 15.8555 21.5417 16.2513 18.9792 19.418C16.2917 22.8971 16.2292 28.9805 18.9583 32.4596C21.4792 35.5638 27 36.0013 30 33.2305C30.6458 32.7096 31.1667 32.0638 31.5833 31.3138C31.9167 30.5638 32.1458 29.7721 32.1667 28.918H28.4583C28.4583 29.3555 28.3125 29.7513 28.125 30.1055C27.9375 30.5013 27.6875 30.8138 27.4167 31.0846C26.7292 31.6263 25.9167 31.918 25.0417 31.918C24.2917 31.8971 23.6667 31.7513 23.1875 31.4388C22.6667 31.1471 22.2083 30.668 21.9583 30.1055C20.9167 28.2305 21.0833 25.6263 21.3333 23.5638ZM25.3333 5.10547C13.875 5.10547 4.5 14.4805 4.5 25.9388C5.60417 53.5846 45.125 53.5638 46.1667 25.9388C46.1667 14.4805 36.7917 5.10547 25.3333 5.10547ZM25.3333 42.6055C16.1458 42.6055 8.66667 35.1263 8.66667 25.9388C9.58333 3.83464 41.0833 3.83464 42 25.9388C42 35.1263 34.5208 42.6055 25.3333 42.6055Z" fill="black"/>
</svg>
