<svg width="51" height="51" viewBox="0 0 51 51" fill="none" xmlns="http://www.w3.org/2000/svg">
<g clip-path="url(#clip0_643_37560)">
<path d="M22.3949 47.4651H26.622C28.2333 47.4651 29.4679 46.4816 29.8445 44.933L30.7443 41.0198L31.414 40.7896L34.825 42.8823C36.1852 43.7403 37.7547 43.531 38.9058 42.38L41.8354 39.4712C42.9863 38.3203 43.1956 36.73 42.3375 35.3907L40.2031 32.0005L40.4543 31.3728L44.3675 30.4519C45.895 30.0753 46.8995 28.8198 46.8995 27.2294V23.0859C46.8995 21.4955 45.9159 20.2399 44.3675 19.8633L40.4961 18.9216L40.224 18.2519L42.3586 14.8619C43.2165 13.5226 43.0072 11.9531 41.8563 10.7813L38.9267 7.85156C37.7967 6.72154 36.2272 6.51227 34.8668 7.34932L31.4559 9.44197L30.7443 9.16993L29.8445 5.2567C29.4679 3.70815 28.2333 2.72461 26.622 2.72461H22.3949C20.7834 2.72461 19.5488 3.70815 19.1722 5.2567L18.2514 9.16993L17.5399 9.44197L14.1498 7.34932C12.7896 6.51227 11.1992 6.72154 10.0692 7.85156L7.16044 10.7813C6.00949 11.9531 5.77929 13.5226 6.65821 14.8619L8.77176 18.2519L8.52065 18.9216L4.64928 19.8633C3.10072 20.2399 2.11719 21.4955 2.11719 23.0859V27.2294C2.11719 28.8198 3.12165 30.0753 4.64928 30.4519L8.56251 31.3728L8.79269 32.0005L6.67913 35.3907C5.80022 36.73 6.03042 38.3203 7.18137 39.4712L10.0901 42.38C11.2411 43.531 12.8315 43.7403 14.1917 42.8823L17.5818 40.7896L18.2514 41.0198L19.1722 44.933C19.5488 46.4816 20.7834 47.4651 22.3949 47.4651ZM22.7297 44.2007C22.374 44.2007 22.1856 44.0541 22.1227 43.7193L20.8672 38.5296C19.5907 38.2157 18.3979 37.7135 17.498 37.1484L12.9361 39.9526C12.685 40.1409 12.4129 40.0991 12.1618 39.848L9.69253 37.3785C9.46233 37.1484 9.4414 36.8973 9.60881 36.6044L12.4129 32.0843C11.9316 31.2053 11.3876 30.0125 11.0527 28.736L5.86301 27.5014C5.52819 27.4385 5.38169 27.2503 5.38169 26.8946V23.3998C5.38169 23.0232 5.50726 22.8557 5.86301 22.793L11.0318 21.5375C11.3666 20.1772 11.9944 18.9425 12.3711 18.1683L9.58788 13.6482C9.39954 13.3343 9.42047 13.0831 9.65067 12.832L12.1409 10.4046C12.392 10.1535 12.6222 10.1116 12.9361 10.2999L17.4562 13.0413C18.356 12.5391 19.6325 12.0159 20.8881 11.6602L22.1227 6.47043C22.1856 6.13561 22.374 5.98911 22.7297 5.98911H26.2872C26.6429 5.98911 26.8311 6.13561 26.8731 6.47043L28.1495 11.702C29.447 12.0368 30.577 12.56 31.5186 13.0622L36.0597 10.2999C36.3945 10.1116 36.6038 10.1535 36.8758 10.4046L39.3452 12.832C39.5963 13.0831 39.5963 13.3343 39.4079 13.6482L36.6247 18.1683C37.0224 18.9425 37.6292 20.1772 37.964 21.5375L43.1538 22.793C43.4886 22.8557 43.635 23.0232 43.635 23.3998V26.8946C43.635 27.2503 43.4675 27.4385 43.1538 27.5014L37.9431 28.736C37.6083 30.0125 37.085 31.2053 36.5829 32.0843L39.387 36.6044C39.5543 36.8973 39.5543 37.1484 39.3033 37.3785L36.8549 39.848C36.5829 40.0991 36.3318 40.1409 36.0597 39.9526L31.4977 37.1484C30.5979 37.7135 29.4261 38.2157 28.1495 38.5296L26.8731 43.7193C26.8311 44.0541 26.6429 44.2007 26.2872 44.2007H22.7297ZM24.5084 33.0887C28.882 33.0887 32.4813 29.4894 32.4813 25.0948C32.4813 20.7421 28.882 17.1429 24.5084 17.1429C20.1347 17.1429 16.5145 20.7421 16.5145 25.0948C16.5145 29.4685 20.1138 33.0887 24.5084 33.0887ZM24.5084 29.8451C21.9134 29.8451 19.779 27.7107 19.779 25.0948C19.779 22.5209 21.9134 20.3864 24.5084 20.3864C27.0615 20.3864 29.1959 22.5209 29.1959 25.0948C29.1959 27.6898 27.0615 29.8451 24.5084 29.8451Z" fill="black" fill-opacity="0.85"/>
</g>
<defs>
<clipPath id="clip0_643_37560">
<rect width="44.7823" height="44.7614" fill="white" transform="translate(2.11719 2.72461)"/>
</clipPath>
</defs>
</svg>
