<svg width="51" height="51" viewBox="0 0 51 51" fill="none" xmlns="http://www.w3.org/2000/svg">
<path d="M40.1758 7.18945H10.4883C9.03915 7.19358 7.65054 7.77107 6.62585 8.79577C5.60115 9.82046 5.02365 11.2091 5.01953 12.6582V31.4082C5.02365 32.8573 5.60115 34.2459 6.62585 35.2706C7.65054 36.2953 9.03915 36.8728 10.4883 36.877H14.3945V44.6895L23.5469 37.0586C23.6874 36.9412 23.8647 36.8769 24.0479 36.877H40.1758C41.6249 36.8728 43.0135 36.2953 44.0382 35.2706C45.0629 34.2459 45.6404 32.8573 45.6445 31.4082V12.6582C45.6404 11.2091 45.0629 9.82046 44.0382 8.79577C43.0135 7.77107 41.6249 7.19358 40.1758 7.18945V7.18945Z" stroke="black" stroke-width="3" stroke-linejoin="round"/>
<path d="M15.957 25.1582C17.6829 25.1582 19.082 23.7591 19.082 22.0332C19.082 20.3073 17.6829 18.9082 15.957 18.9082C14.2311 18.9082 12.832 20.3073 12.832 22.0332C12.832 23.7591 14.2311 25.1582 15.957 25.1582Z" fill="black"/>
<path d="M25.332 25.1582C27.0579 25.1582 28.457 23.7591 28.457 22.0332C28.457 20.3073 27.0579 18.9082 25.332 18.9082C23.6061 18.9082 22.207 20.3073 22.207 22.0332C22.207 23.7591 23.6061 25.1582 25.332 25.1582Z" fill="black"/>
<path d="M34.707 25.1582C36.4329 25.1582 37.832 23.7591 37.832 22.0332C37.832 20.3073 36.4329 18.9082 34.707 18.9082C32.9811 18.9082 31.582 20.3073 31.582 22.0332C31.582 23.7591 32.9811 25.1582 34.707 25.1582Z" fill="black"/>
</svg>
