<svg width="51" height="51" viewBox="0 0 51 51" fill="none" xmlns="http://www.w3.org/2000/svg">
<path d="M8.66667 9.27344C7.5616 9.27344 6.50179 9.71242 5.72039 10.4938C4.93899 11.2752 4.5 12.335 4.5 13.4401V21.7734C5.60507 21.7734 6.66488 22.2124 7.44628 22.9938C8.22768 23.7752 8.66667 24.835 8.66667 25.9401C8.66667 27.0452 8.22768 28.105 7.44628 28.8864C6.66488 29.6678 5.60507 30.1068 4.5 30.1068V38.4401C4.5 39.5452 4.93899 40.605 5.72039 41.3864C6.50179 42.1678 7.5616 42.6068 8.66667 42.6068H42C43.1051 42.6068 44.1649 42.1678 44.9463 41.3864C45.7277 40.605 46.1667 39.5452 46.1667 38.4401V30.1068C45.0616 30.1068 44.0018 29.6678 43.2204 28.8864C42.439 28.105 42 27.0452 42 25.9401C42 24.835 42.439 23.7752 43.2204 22.9938C44.0018 22.2124 45.0616 21.7734 46.1667 21.7734V13.4401C46.1667 12.335 45.7277 11.2752 44.9463 10.4938C44.1649 9.71242 43.1051 9.27344 42 9.27344H8.66667ZM8.66667 13.4401H42V18.7318C39.4167 20.2109 37.8333 22.9609 37.8333 25.9401C37.8333 28.9193 39.4167 31.6693 42 33.1484V38.4401H8.66667V33.1484C11.25 31.6693 12.8333 28.9193 12.8333 25.9401C12.8333 22.9609 11.25 20.2109 8.66667 18.7318V13.4401Z" fill="black"/>
</svg>
