<svg width="51" height="51" viewBox="0 0 51 51" fill="none" xmlns="http://www.w3.org/2000/svg">
<path d="M25.332 5.10547C23.2718 5.10547 21.2579 5.7164 19.5448 6.86099C17.8318 8.00559 16.4967 9.63245 15.7083 11.5358C14.9199 13.4392 14.7136 15.5337 15.1155 17.5543C15.5174 19.575 16.5095 21.431 17.9663 22.8878C19.4231 24.3446 21.2792 25.3367 23.2998 25.7386C25.3205 26.1406 27.4149 25.9343 29.3183 25.1459C31.2217 24.3575 32.8486 23.0223 33.9932 21.3093C35.1378 19.5963 35.7487 17.5824 35.7487 15.5221C35.7487 12.7595 34.6512 10.1099 32.6977 8.15644C30.7442 6.20294 28.0947 5.10547 25.332 5.10547ZM25.332 21.7721C24.0959 21.7721 22.8875 21.4056 21.8597 20.7188C20.8319 20.0321 20.0308 19.0559 19.5578 17.9139C19.0847 16.7719 18.961 15.5152 19.2021 14.3028C19.4433 13.0904 20.0385 11.9768 20.9126 11.1027C21.7867 10.2286 22.9003 9.63339 24.1127 9.39223C25.3251 9.15107 26.5818 9.27484 27.7238 9.74789C28.8658 10.2209 29.842 11.022 30.5287 12.0498C31.2155 13.0776 31.582 14.286 31.582 15.5221C31.582 17.1797 30.9236 18.7695 29.7514 19.9416C28.5793 21.1137 26.9896 21.7721 25.332 21.7721ZM44.082 44.6888V42.6055C44.082 38.7377 42.5456 35.0284 39.8107 32.2935C37.0758 29.5586 33.3664 28.0221 29.4987 28.0221H21.1654C17.2976 28.0221 13.5883 29.5586 10.8534 32.2935C8.11848 35.0284 6.58203 38.7377 6.58203 42.6055V44.6888H10.7487V42.6055C10.7487 39.8428 11.8462 37.1933 13.7997 35.2398C15.7532 33.2863 18.4027 32.1888 21.1654 32.1888H29.4987C32.2614 32.1888 34.9109 33.2863 36.8644 35.2398C38.8179 37.1933 39.9154 39.8428 39.9154 42.6055V44.6888H44.082Z" fill="black"/>
</svg>
