<svg width="51" height="51" viewBox="0 0 51 51" fill="none" xmlns="http://www.w3.org/2000/svg">
<g clip-path="url(#clip0_641_37578)">
<path d="M9.90301 21.5806C7.70569 21.5806 5.92694 23.3385 5.92694 25.5357C5.92694 27.733 7.70569 29.5117 9.90301 29.5117C12.1002 29.5117 13.8789 27.733 13.8789 25.5357C13.8789 23.3385 12.1002 21.5806 9.90301 21.5806Z" fill="black" fill-opacity="0.85"/>
<path d="M25.4537 21.5806C23.2563 21.5806 21.4987 23.3385 21.4987 25.5357C21.4987 27.733 23.2563 29.5117 25.4537 29.5117C27.651 29.5117 29.4297 27.733 29.4297 25.5357C29.4297 23.3385 27.651 21.5806 25.4537 21.5806Z" fill="black" fill-opacity="0.85"/>
<path d="M41.0006 21.5806C38.8033 21.5806 37.0455 23.3385 37.0455 25.5357C37.0455 27.733 38.8033 29.5117 41.0006 29.5117C43.1978 29.5117 44.9766 27.733 44.9766 25.5357C44.9766 23.3385 43.1978 21.5806 41.0006 21.5806Z" fill="black" fill-opacity="0.85"/>
</g>
<defs>
<clipPath id="clip0_641_37578">
<rect width="39.0486" height="7.97293" fill="white" transform="matrix(-1 0 0 -1 44.9766 29.5117)"/>
</clipPath>
</defs>
</svg>
