<svg width="51" height="51" viewBox="0 0 51 51" fill="none" xmlns="http://www.w3.org/2000/svg">
<g clip-path="url(#clip0_641_37562)">
<path d="M20.9713 41.3685C20.9713 43.5658 22.7291 45.3445 24.9263 45.3445C27.1236 45.3445 28.9023 43.5658 28.9023 41.3685C28.9023 39.1713 27.1236 37.3926 24.9263 37.3926C22.7291 37.3926 20.9713 39.1713 20.9713 41.3685Z" fill="black" fill-opacity="0.85"/>
<path d="M20.9713 25.8217C20.9713 28.019 22.7291 29.7767 24.9263 29.7767C27.1236 29.7767 28.9023 28.019 28.9023 25.8217C28.9023 23.6244 27.1236 21.8457 24.9263 21.8457C22.7291 21.8457 20.9713 23.6244 20.9713 25.8217Z" fill="black" fill-opacity="0.85"/>
<path d="M20.9713 10.2729C20.9713 12.4701 22.7291 14.228 24.9263 14.228C27.1236 14.228 28.9023 12.4701 28.9023 10.2729C28.9023 8.07561 27.1236 6.29688 24.9263 6.29688C22.7291 6.29688 20.9713 8.07561 20.9713 10.2729Z" fill="black" fill-opacity="0.85"/>
</g>
<defs>
<clipPath id="clip0_641_37562">
<rect width="39.0486" height="7.97293" fill="white" transform="matrix(0 1 -1 0 28.9023 6.29688)"/>
</clipPath>
</defs>
</svg>
