<svg width="51" height="51" viewBox="0 0 51 51" fill="none" xmlns="http://www.w3.org/2000/svg">
<g clip-path="url(#clip0_723_5065)">
<path d="M29.7474 30.3568C29.1752 30.9709 28.4852 31.4634 27.7185 31.805C26.9519 32.1466 26.1243 32.3303 25.2851 32.3451C24.4459 32.3599 23.6123 32.2055 22.8341 31.8912C22.0558 31.5768 21.3489 31.109 20.7554 30.5155C20.1619 29.922 19.694 29.215 19.3797 28.4368C19.0654 27.6586 18.911 26.825 18.9258 25.9858C18.9406 25.1466 19.1243 24.319 19.4659 23.5523C19.8075 22.7857 20.3 22.0957 20.9141 21.5235M37.7057 38.3152C34.1445 41.0297 29.808 42.5336 25.3307 42.6068C10.7474 42.6068 2.41406 25.9402 2.41406 25.9402C5.0055 21.1108 8.59976 16.8914 12.9557 13.5652L37.7057 38.3152ZM20.9557 9.77349C22.3898 9.43782 23.8579 9.27003 25.3307 9.27349C39.9141 9.27349 48.2474 25.9402 48.2474 25.9402C46.9828 28.306 45.4746 30.5334 43.7474 32.586L20.9557 9.77349Z" stroke="black" stroke-width="4" stroke-linecap="round" stroke-linejoin="round"/>
<path d="M2.41406 3.02344L48.2474 48.8568" stroke="black" stroke-width="4" stroke-linecap="round" stroke-linejoin="round"/>
</g>
<defs>
<clipPath id="clip0_723_5065">
<rect width="50" height="50" fill="white" transform="translate(0.332031 0.939453)"/>
</clipPath>
</defs>
</svg>
