<svg width="51" height="51" viewBox="0 0 51 51" fill="none" xmlns="http://www.w3.org/2000/svg">
<path d="M45.3167 15.9451C45.0794 15.0647 44.6156 14.2617 43.9716 13.6163C43.3276 12.9708 42.5257 12.5052 41.6458 12.2659C38.3833 11.3701 25.3313 11.3555 25.3313 11.3555C25.3313 11.3555 12.2813 11.3409 9.01667 12.1972C8.13735 12.4475 7.33713 12.9196 6.69285 13.5683C6.04857 14.2169 5.58185 15.0203 5.3375 15.9013C4.47709 19.1638 4.46875 25.9305 4.46875 25.9305C4.46875 25.9305 4.46042 32.7305 5.31459 35.9597C5.79375 37.7451 7.2 39.1555 8.9875 39.6367C12.2833 40.5326 25.3 40.5471 25.3 40.5471C25.3 40.5471 38.3521 40.5617 41.6146 39.7076C42.4948 39.4687 43.2974 39.0042 43.943 38.36C44.5887 37.7159 45.055 36.9143 45.2958 36.0347C46.1583 32.7742 46.1646 26.0097 46.1646 26.0097C46.1646 26.0097 46.2063 19.2076 45.3167 15.9451ZM21.1563 32.1992L21.1667 19.6992L32.0146 25.9597L21.1563 32.1992Z" fill="black"/>
</svg>
