<svg width="51" height="51" viewBox="0 0 51 51" fill="none" xmlns="http://www.w3.org/2000/svg">
<g clip-path="url(#clip0_632_1076)">
<path d="M10.983 46.7535C11.841 47.4232 12.9292 47.193 14.2266 46.2514L25.2966 38.111L36.3877 46.2514C37.685 47.193 38.7523 47.4232 39.6312 46.7535C40.4893 46.105 40.6775 45.0376 40.1544 43.51L35.7807 30.4939L46.9553 22.4582C48.2528 21.5375 48.776 20.5748 48.4412 19.5285C48.1064 18.524 47.1228 18.0218 45.5116 18.0427L31.8048 18.1264L27.6403 5.04743C27.1382 3.49888 26.3848 2.72461 25.2966 2.72461C24.2294 2.72461 23.476 3.49888 22.9739 5.04743L18.8095 18.1264L5.10275 18.0427C3.49141 18.0218 2.50787 18.524 2.17305 19.5285C1.8173 20.5748 2.36139 21.5375 3.65882 22.4582L14.8335 30.4939L10.4599 43.51C9.93673 45.0376 10.1251 46.105 10.983 46.7535Z" fill="#FFD034"/>
</g>
<defs>
<clipPath id="clip0_632_1076">
<rect width="46.4734" height="47.3982" fill="white" transform="translate(2.06641 2.72461)"/>
</clipPath>
</defs>
</svg>
