<svg width="51" height="51" viewBox="0 0 51 51" fill="none" xmlns="http://www.w3.org/2000/svg">
<g clip-path="url(#clip0_634_37243)">
<path d="M11.0338 46.7535C11.8918 47.4232 12.98 47.193 14.2774 46.2514L25.3474 38.111L36.4384 46.2514C37.7358 47.193 38.8031 47.4232 39.682 46.7535C40.54 46.105 40.7283 45.0376 40.2052 43.51L35.8315 30.4939L47.0061 22.4582C48.3036 21.5375 48.8268 20.5748 48.492 19.5285C48.1572 18.524 47.1736 18.0218 45.5624 18.0427L31.8556 18.1264L27.6911 5.04743C27.189 3.49888 26.4356 2.72461 25.3474 2.72461C24.2802 2.72461 23.5268 3.49888 23.0247 5.04743L18.8603 18.1264L5.15353 18.0427C3.54219 18.0218 2.55865 18.524 2.22383 19.5285C1.86808 20.5748 2.41217 21.5375 3.7096 22.4582L14.8843 30.4939L10.5107 43.51C9.98751 45.0376 10.1758 46.105 11.0338 46.7535ZM14.0472 42.6101C14.0054 42.5684 14.0263 42.5475 14.0472 42.4219L18.2116 30.4519C18.5045 29.6359 18.3371 28.9871 17.6047 28.485L7.18337 21.2862C7.07874 21.2235 7.05781 21.1816 7.07874 21.1189C7.09967 21.056 7.14153 21.056 7.26708 21.056L19.9275 21.2862C20.7856 21.3071 21.3295 20.9514 21.6017 20.0935L25.2427 7.97713C25.2638 7.85156 25.3056 7.80972 25.3474 7.80972C25.4102 7.80972 25.452 7.85156 25.4731 7.97713L29.1142 20.0935C29.3863 20.9514 29.9302 21.3071 30.7883 21.2862L43.4488 21.056C43.5743 21.056 43.6161 21.056 43.637 21.1189C43.6579 21.1816 43.6161 21.2235 43.5324 21.2862L33.1111 28.485C32.3786 28.9871 32.2113 29.6359 32.5043 30.4519L36.6686 42.4219C36.6895 42.5475 36.7104 42.5684 36.6686 42.6101C36.6267 42.673 36.564 42.6312 36.4802 42.5684L26.4147 34.8884C25.745 34.3653 24.9708 34.3653 24.3011 34.8884L14.2355 42.5684C14.1518 42.6312 14.0891 42.673 14.0472 42.6101Z" fill="black" fill-opacity="0.85"/>
</g>
<defs>
<clipPath id="clip0_634_37243">
<rect width="46.4734" height="47.3982" fill="white" transform="translate(2.11719 2.72461)"/>
</clipPath>
</defs>
</svg>
