<svg width="46" height="51" viewBox="0 0 46 51" fill="none" xmlns="http://www.w3.org/2000/svg">
<g clip-path="url(#clip0_622_37285)">
<path d="M0.332031 39.2316C0.332031 40.9973 1.68665 42.1586 3.98466 42.1586H14.1927C14.3862 46.8272 18.0388 50.9151 23.1429 50.9151C28.2711 50.9151 31.9237 46.8513 32.1171 42.1586H42.3253C44.599 42.1586 45.9779 40.9973 45.9779 39.2316C45.9779 36.8126 43.5105 34.6355 41.4303 32.4826C39.8336 30.8137 39.3983 27.3787 39.2047 24.5968C39.0354 15.0662 36.5681 8.92203 30.1336 6.59982C29.3113 3.43098 26.723 0.939453 23.1429 0.939453C19.5869 0.939453 16.9745 3.43098 16.1762 6.59982C9.74178 8.92203 7.27444 15.0662 7.10512 24.5968C6.9116 27.3787 6.47619 30.8137 4.87967 32.4826C2.77517 34.6355 0.332031 36.8126 0.332031 39.2316ZM5.02482 38.5059V38.2156C5.46024 37.5142 6.9116 36.0869 8.16947 34.684C9.9111 32.7489 10.7336 29.6282 10.9513 24.9114C11.1448 14.3405 14.2894 10.9781 18.4258 9.84123C19.0306 9.69609 19.3693 9.40581 19.3934 8.77689C19.466 6.26116 20.9174 4.49533 23.1429 4.49533C25.3924 4.49533 26.8196 6.26116 26.9164 8.77689C26.9405 9.40581 27.2551 9.69609 27.8597 9.84123C32.0205 10.9781 35.1651 14.3405 35.3587 24.9114C35.5762 29.6282 36.3988 32.7489 38.1162 34.684C39.3983 36.0869 40.8255 37.5142 41.2608 38.2156V38.5059H5.02482ZM17.9663 42.1586H28.3436C28.1502 45.4483 26.0699 47.5045 23.1429 47.5045C20.2401 47.5045 18.1356 45.4483 17.9663 42.1586Z" fill="black" fill-opacity="0.85"/>
</g>
<defs>
<clipPath id="clip0_622_37285">
<rect width="45.6458" height="50" fill="white" transform="translate(0.332031 0.939453)"/>
</clipPath>
</defs>
</svg>
