<svg width="47" height="51" viewBox="0 0 47 51" fill="none" xmlns="http://www.w3.org/2000/svg">
<g clip-path="url(#clip0_622_37299)">
<path d="M0.976562 39.2316C0.976562 40.9973 2.33118 42.1586 4.62919 42.1586H14.8372C15.0307 46.8272 18.6833 50.9151 23.7874 50.9151C28.9156 50.9151 32.5682 46.8513 32.7616 42.1586H42.9698C45.2435 42.1586 46.6224 40.9973 46.6224 39.2316C46.6224 36.8126 44.1551 34.6355 42.0748 32.4826C40.4781 30.8137 40.0428 27.3787 39.8492 24.5968C39.6799 15.0662 37.2126 8.92203 30.7782 6.59982C29.9558 3.43098 27.3675 0.939453 23.7874 0.939453C20.2315 0.939453 17.619 3.43098 16.8207 6.59982C10.3863 8.92203 7.91898 15.0662 7.74965 24.5968C7.55613 27.3787 7.12072 30.8137 5.5242 32.4826C3.4197 34.6355 0.976562 36.8126 0.976562 39.2316ZM5.66935 38.5059V38.2156C6.10477 37.5142 7.55613 36.0869 8.814 34.684C10.5556 32.7489 11.3781 29.6282 11.5958 24.9114C11.7893 14.3405 14.934 10.9781 19.0704 9.84123C19.6751 9.69609 20.0138 9.40581 20.038 8.77689C20.1105 6.26116 21.5619 4.49533 23.7874 4.49533C26.0369 4.49533 27.4641 6.26116 27.5609 8.77689C27.5851 9.40581 27.8997 9.69609 28.5043 9.84123C32.665 10.9781 35.8096 14.3405 36.0032 24.9114C36.2208 29.6282 37.0434 32.7489 38.7607 34.684C40.0428 36.0869 41.47 37.5142 41.9053 38.2156V38.5059H5.66935ZM18.6108 42.1586H28.9881C28.7947 45.4483 26.7144 47.5045 23.7874 47.5045C20.8846 47.5045 18.7801 45.4483 18.6108 42.1586Z" fill="black" fill-opacity="0.85"/>
<path d="M36.332 21.0605C41.8549 21.0605 46.332 16.5834 46.332 11.0605C46.332 5.5377 41.8549 1.06055 36.332 1.06055C30.8092 1.06055 26.332 5.5377 26.332 11.0605C26.332 16.5834 30.8092 21.0605 36.332 21.0605Z" fill="#F05A7E"/>
<path d="M40.2083 16.0618H38.6979L34.2318 9.61652H34.1536V16.0618H32.4609V6.63477H33.9974L38.4374 13.0801H38.5286V6.63477H40.2083V16.0618Z" fill="white"/>
</g>
<defs>
<clipPath id="clip0_622_37299">
<rect width="45.6458" height="50" fill="white" transform="translate(0.976562 0.939453)"/>
</clipPath>
</defs>
</svg>
