<svg width="51" height="51" viewBox="0 0 51 51" fill="none" xmlns="http://www.w3.org/2000/svg">
<g clip-path="url(#clip0_676_4537)">
<path d="M15.581 26.2461C15.581 25.7229 15.7901 25.2416 16.1878 24.865L32.7614 8.62612C33.1381 8.27037 33.5985 8.08203 34.1426 8.08203C35.2098 8.08203 36.0469 8.89816 36.0469 9.98633C36.0469 10.5095 35.8376 10.9908 35.5028 11.3465L20.2684 26.2461L35.5028 41.1456C35.8376 41.5013 36.0469 41.9619 36.0469 42.5058C36.0469 43.594 35.2098 44.4102 34.1426 44.4102C33.5985 44.4102 33.1381 44.2219 32.7614 43.8451L16.1878 27.6272C15.7901 27.2297 15.581 26.7692 15.581 26.2461Z" fill="black"/>
</g>
<defs>
<clipPath id="clip0_676_4537">
<rect width="20.4659" height="36.3491" fill="white" transform="matrix(-1 0 0 1 36.0469 8.08203)"/>
</clipPath>
</defs>
</svg>
