<svg width="51" height="51" viewBox="0 0 51 51" fill="none" xmlns="http://www.w3.org/2000/svg">
<g clip-path="url(#clip0_1448_7306)">
<path d="M25.6616 14.368C26.1848 14.368 26.7078 14.5773 27.0637 14.9749L43.2607 31.5695C43.6164 31.9252 43.8257 32.3856 43.8257 32.9088C43.8257 33.9969 43.0094 34.834 41.9214 34.834C41.3982 34.834 40.9169 34.6247 40.561 34.2899L24.5315 17.9046H26.7707L10.7411 34.2899C10.4062 34.6247 9.92494 34.834 9.38087 34.834C8.29269 34.834 7.47656 33.9969 7.47656 32.9088C7.47656 32.3856 7.68583 31.9252 8.04157 31.5485L24.2386 14.9749C24.6362 14.5773 25.1175 14.368 25.6616 14.368Z" fill="black"/>
</g>
<defs>
<clipPath id="clip0_1448_7306">
<rect width="36.3491" height="22.2866" fill="white" transform="matrix(1 0 0 -1 7.47656 36.6543)"/>
</clipPath>
</defs>
</svg>
