<svg width="51" height="51" viewBox="0 0 51 51" fill="none" xmlns="http://www.w3.org/2000/svg">
<path d="M41.2354 17.6C41.2625 17.9646 41.2625 18.3271 41.2625 18.6896C41.2625 29.7833 32.8187 42.5667 17.3875 42.5667C12.6333 42.5667 8.21667 41.1896 4.5 38.7979C5.175 38.875 5.825 38.9021 6.52708 38.9021C10.3042 38.9112 13.9743 37.6482 16.9458 35.3167C15.1946 35.285 13.497 34.7072 12.0901 33.664C10.6831 32.6209 9.63705 31.1644 9.09792 29.4979C9.61667 29.575 10.1375 29.6271 10.6833 29.6271C11.4354 29.6271 12.1917 29.5229 12.8937 29.3417C10.9932 28.9579 9.28432 27.9278 8.05754 26.4264C6.83076 24.925 6.16186 23.0451 6.16458 21.1063V21.0021C7.28333 21.625 8.58125 22.0146 9.95625 22.0667C8.80435 21.3012 7.85983 20.2625 7.20696 19.0433C6.55408 17.8241 6.21315 16.4622 6.21458 15.0792C6.21458 13.5208 6.62917 12.0917 7.35625 10.8458C9.46487 13.4396 12.0948 15.5616 15.0757 17.0743C18.0566 18.587 21.322 19.4567 24.6604 19.6271C24.5312 19.0021 24.4521 18.3542 24.4521 17.7042C24.4515 16.602 24.6682 15.5105 25.0897 14.4922C25.5113 13.4738 26.1294 12.5485 26.9087 11.7691C27.6881 10.9898 28.6134 10.3717 29.6317 9.95016C30.6501 9.52864 31.7416 9.31195 32.8437 9.3125C35.2604 9.3125 37.4417 10.325 38.975 11.9625C40.8537 11.5992 42.6553 10.9134 44.3 9.93542C43.6738 11.8746 42.362 13.519 40.6104 14.5604C42.2766 14.3704 43.9051 13.9322 45.4417 13.2604C44.294 14.9335 42.8719 16.4007 41.2354 17.6Z" fill="#00ACEE"/>
</svg>
